<?xml version="1.0" encoding="utf-8"?>
<!-- Generator: Adobe Illustrator 17.0.0, SVG Export Plug-In . SVG Version: 6.00 Build 0)  -->
<!DOCTYPE svg PUBLIC "-//W3C//DTD SVG 1.1//EN" "http://www.w3.org/Graphics/SVG/1.1/DTD/svg11.dtd">
<svg version="1.1" xmlns="http://www.w3.org/2000/svg" xmlns:xlink="http://www.w3.org/1999/xlink" x="0px" y="0px" width="330px"
	 height="120px" viewBox="0 0 330 120" enable-background="new 0 0 330 120" xml:space="preserve">
<g id="Base">
</g>
<g id="Art">
	<g>
		<polyline fill-rule="evenodd" clip-rule="evenodd" fill="#58595B" points="112.163,3.508 95.804,18.712 101.04,23.551 
			112.163,13.218 156.465,54.345 166.907,54.345 112.163,3.508 		"/>
		<polyline fill-rule="evenodd" clip-rule="evenodd" fill="#82AB3F" points="79.439,3.508 24.695,54.345 35.141,54.345 
			79.439,13.218 123.743,54.345 134.185,54.345 79.439,3.508 		"/>
		<rect x="80.118" y="32.546" fill-rule="evenodd" clip-rule="evenodd" fill="#58595B" width="10.701" height="10.225"/>
		<rect x="80.118" y="44.156" fill-rule="evenodd" clip-rule="evenodd" fill="#58595B" width="10.701" height="10.217"/>
		<rect x="68.065" y="32.546" fill-rule="evenodd" clip-rule="evenodd" fill="#58595B" width="10.697" height="10.225"/>
		<rect x="68.065" y="44.156" fill-rule="evenodd" clip-rule="evenodd" fill="#58595B" width="10.697" height="10.217"/>
		<polyline fill-rule="evenodd" clip-rule="evenodd" fill="#82AB3F" points="144.857,3.508 128.497,18.712 133.735,23.551 
			144.857,13.218 189.159,54.345 199.602,54.345 144.857,3.508 		"/>
		<path fill="#82AB3F" d="M13.445,94.033V70.165h6.665v-2.248H4.452l-0.578,2.248h7.242v24.21L13.445,94.033L13.445,94.033z
			 M25.008,94.033V81.769h14.971v12.606l2.327-0.342V67.58l-2.327,0.337V79.59H25.008V67.58l-2.289,0.337v26.458L25.008,94.033
			L25.008,94.033z M61.26,94.033l0.506-2.213H48.992V81.769h10.37v-2.141h-10.37V70.09h12.232l-0.539-2.174H46.7v26.116H61.26
			L61.26,94.033z M84.797,71.952l4.731,9.423h-9.423L84.797,71.952L84.797,71.952z M73.42,94.301l5.531-10.744h11.638l5.418,10.744
			l2.253-0.692l-13.351-26.5L71.224,93.663L73.42,94.301L73.42,94.301z M101.761,94.033V73.406l17.651,21.135V67.464l-2.291,0.452
			v20.588L99.47,67.464V94.54L101.761,94.033L101.761,94.033z M134.104,71.952l4.727,9.423h-9.42L134.104,71.952L134.104,71.952z
			 M122.728,94.301l5.529-10.744h11.638l5.419,10.744l2.252-0.692l-13.351-26.5l-13.686,26.555L122.728,94.301L122.728,94.301z
			 M170.71,79.852l-0.855,2.215h8.788v7.853c-1.066,0.825-2.201,1.437-3.397,1.853c-1.198,0.419-2.444,0.626-3.735,0.626
			c-3.167,0-5.84-1.1-8.025-3.288c-2.185-2.19-3.277-4.907-3.277-8.146s1.095-5.958,3.287-8.157
			c2.192-2.198,4.877-3.296,8.053-3.296c1.365,0,2.674,0.234,3.929,0.712c1.254,0.469,2.433,1.175,3.538,2.116l1.49-1.713
			c-1.241-1.092-2.616-1.909-4.125-2.466c-1.506-0.549-3.118-0.825-4.831-0.825c-2.061,0-3.967,0.392-5.717,1.175
			c-1.75,0.778-3.265,1.909-4.542,3.404c-1.105,1.28-1.957,2.698-2.553,4.253c-0.594,1.559-0.894,3.156-0.894,4.797
			c0,1.862,0.379,3.674,1.137,5.434c0.756,1.763,1.805,3.28,3.147,4.543c1.252,1.208,2.679,2.121,4.273,2.736
			c1.596,0.626,3.312,0.935,5.149,0.935c1.825,0,3.528-0.309,5.111-0.935c1.582-0.615,3.002-1.528,4.255-2.736V79.852H170.71
			L170.71,79.852z M187.152,94.033V70.126h1.823c1.901,0,3.38,0.491,4.443,1.47c1.06,0.985,1.591,2.347,1.591,4.099
			c0,1.752-0.531,3.111-1.591,4.099c-1.062,0.976-2.542,1.47-4.443,1.47l-1.823-0.041l10.054,13.185l2.106-1.321l-8.046-10.002
			c1.887-0.279,3.397-1.103,4.525-2.455c1.128-1.352,1.695-3.02,1.695-5.006c0-2.339-0.757-4.204-2.272-5.605
			c-1.516-1.404-3.534-2.107-6.052-2.107h-4.302v26.593L187.152,94.033L187.152,94.033z M205.678,72.81
			c2.197-2.198,4.88-3.296,8.045-3.296c3.153,0,5.822,1.098,8.006,3.296c2.186,2.198,3.279,4.918,3.279,8.157
			c0,3.222-1.098,5.939-3.296,8.135c-2.197,2.198-4.873,3.299-8.025,3.299c-3.164,0-5.841-1.1-8.024-3.288
			c-2.187-2.19-3.278-4.907-3.278-8.146S203.482,75.008,205.678,72.81L205.678,72.81z M201.146,86.376
			c0.752,1.757,1.803,3.282,3.156,4.568c1.252,1.208,2.678,2.121,4.274,2.736c1.594,0.626,3.31,0.935,5.147,0.935
			c1.825,0,3.529-0.309,5.113-0.935c1.581-0.615,3-1.528,4.254-2.736c1.341-1.263,2.39-2.781,3.147-4.543
			c0.757-1.76,1.135-3.572,1.135-5.434c0-1.939-0.366-3.76-1.099-5.464c-0.732-1.707-1.792-3.208-3.183-4.499
			c-1.277-1.214-2.706-2.132-4.284-2.747c-1.575-0.615-3.269-0.919-5.083-0.919c-1.837,0-3.553,0.309-5.147,0.93
			c-1.596,0.621-3.022,1.534-4.274,2.736c-1.353,1.291-2.404,2.808-3.156,4.554c-0.753,1.741-1.127,3.545-1.127,5.409
			C200.019,82.817,200.393,84.619,201.146,86.376L201.146,86.376z M230.611,84.467c0,2.11,0.151,3.685,0.447,4.728
			c0.298,1.045,0.796,1.944,1.49,2.7c0.757,0.841,1.767,1.501,3.026,1.975c1.261,0.469,2.629,0.704,4.107,0.704
			c1.487,0,2.86-0.234,4.114-0.704c1.254-0.474,2.259-1.134,3.016-1.975c0.72-0.767,1.232-1.683,1.538-2.747
			c0.302-1.062,0.455-2.623,0.455-4.681V67.58l-2.403,0.331v16.52c0,2.902-0.515,4.94-1.546,6.107
			c-1.03,1.161-2.756,1.754-5.175,1.754c-2.409,0-4.128-0.593-5.158-1.765c-1.032-1.172-1.546-3.205-1.546-6.096V67.58l-2.365,0.331
			V84.467L230.611,84.467z M257.444,70.126c2.16,0,3.843,0.579,5.053,1.735c1.211,1.156,1.816,2.747,1.816,4.786
			c0,2.036-0.606,3.627-1.816,4.783c-1.211,1.159-2.894,1.735-5.053,1.735h-2.051V70.126H257.444L257.444,70.126z M255.393,94.033
			V85.38h2.085c2.782,0,5.011-0.8,6.686-2.392c1.676-1.597,2.514-3.71,2.514-6.341c0-2.634-0.839-4.747-2.514-6.344
			c-1.676-1.589-3.904-2.392-6.686-2.392h-4.373v26.593L255.393,94.033L255.393,94.033z M291.014,94.033l0.803-2.287h-9.275V67.652
			l-2.327,0.259v26.122H291.014L291.014,94.033z M304.701,94.033l0.801-2.287h-9.272V67.652l-2.329,0.259v26.122H304.701
			L304.701,94.033z M325.593,90.839c-1.004,0.53-1.96,0.924-2.859,1.175c-0.901,0.259-1.815,0.386-2.747,0.386
			c-3.176,0-5.854-1.095-8.032-3.282c-2.179-2.179-3.27-4.899-3.27-8.151c0-3.258,1.094-5.969,3.278-8.146
			c2.185-2.182,4.873-3.266,8.064-3.266c1.043,0,2.023,0.13,2.939,0.397c0.92,0.267,1.783,0.665,2.59,1.197l-0.503-2.882
			c-0.832-0.312-1.655-0.546-2.467-0.698c-0.812-0.157-1.64-0.232-2.485-0.232c-1.626,0-3.147,0.237-4.561,0.706
			c-1.416,0.474-2.732,1.18-3.949,2.121c-1.637,1.28-2.927,2.88-3.863,4.8c-0.938,1.917-1.407,3.914-1.407,6.002
			c0,2.074,0.469,4.071,1.407,5.994c0.936,1.926,2.226,3.531,3.863,4.825c1.178,0.93,2.48,1.633,3.902,2.113
			c1.421,0.477,2.945,0.717,4.571,0.717c0.869,0,1.722-0.088,2.561-0.254c0.836-0.166,1.685-0.428,2.54-0.789L325.593,90.839
			L325.593,90.839z"/>
		<path fill="#58595B" d="M122.656,116.241v-10.226h2.856v-0.968h-6.708l-0.247,0.968h3.102v10.374L122.656,116.241L122.656,116.241
			z M125.556,112.542c-0.006-0.108-0.008-0.234-0.008-0.384c0-0.941,0.326-1.729,0.973-2.369c0.648-0.643,1.441-0.96,2.376-0.96
			c0.45,0,0.845,0.066,1.194,0.21c0.348,0.143,0.637,0.356,0.865,0.634l-5.376,3.2C125.569,112.765,125.562,112.649,125.556,112.542
			L125.556,112.542z M132.129,114.103c-0.629,0.494-1.194,0.85-1.7,1.068c-0.505,0.218-1.015,0.32-1.532,0.32
			c-0.647,0-1.233-0.157-1.753-0.474c-0.521-0.32-0.934-0.773-1.237-1.36l6.39-3.771c-0.325-0.637-0.777-1.117-1.36-1.454
			c-0.582-0.331-1.261-0.505-2.04-0.505c-1.228,0-2.252,0.408-3.077,1.214c-0.825,0.808-1.237,1.823-1.237,3.034
			c0,1.208,0.41,2.229,1.228,3.04c0.821,0.819,1.85,1.227,3.087,1.227c0.565,0,1.11-0.094,1.637-0.281
			c0.527-0.19,1.056-0.48,1.596-0.883V114.103L132.129,114.103z"/>
		<path fill="#58595B" d="M134.291,116.241v-5.078c0-0.692,0.243-1.283,0.725-1.768c0.484-0.488,1.054-0.734,1.707-0.734
			c0.723,0,1.266,0.24,1.632,0.709c0.363,0.472,0.548,1.175,0.548,2.121v4.863l0.892-0.113v-5.205c0-0.998-0.25-1.776-0.746-2.323
			c-0.498-0.552-1.196-0.825-2.095-0.825c-0.546,0-1.041,0.127-1.481,0.37c-0.443,0.251-0.837,0.626-1.182,1.122v-1.385l-0.916,0.11
			v8.248L134.291,116.241L134.291,116.241z M142.471,111.943c0.407-0.403,0.925-0.599,1.558-0.599c0.612,0,1.108,0.196,1.49,0.585
			c0.38,0.389,0.569,0.899,0.569,1.523c0,0.623-0.189,1.134-0.569,1.522c-0.382,0.389-0.883,0.585-1.506,0.585
			c-0.621,0-1.135-0.207-1.542-0.607c-0.408-0.403-0.611-0.899-0.611-1.5C141.86,112.845,142.062,112.34,142.471,111.943
			L142.471,111.943z M146.088,116.442l0.917-0.201v-5.762c0-0.897-0.207-1.55-0.618-1.964c-0.412-0.414-1.063-0.626-1.95-0.626
			c-0.356,0-0.725,0.033-1.109,0.108c-0.384,0.066-0.775,0.171-1.174,0.312l-0.358,1.056c0.528-0.223,0.993-0.384,1.404-0.486
			c0.41-0.102,0.789-0.149,1.141-0.149c0.596,0,1.034,0.132,1.32,0.4c0.284,0.27,0.428,0.687,0.428,1.25v1.029
			c-0.287-0.309-0.619-0.543-0.997-0.703c-0.378-0.166-0.774-0.248-1.19-0.248c-0.823,0-1.527,0.295-2.113,0.877
			c-0.586,0.59-0.877,1.294-0.877,2.118c0,0.83,0.29,1.533,0.873,2.118c0.583,0.579,1.289,0.871,2.117,0.871
			c0.432,0,0.83-0.088,1.197-0.259c0.368-0.165,0.698-0.419,0.99-0.756V116.442L146.088,116.442z M149.532,116.241v-5.078
			c0-0.692,0.243-1.283,0.727-1.768c0.483-0.488,1.054-0.734,1.707-0.734c0.724,0,1.267,0.24,1.63,0.709
			c0.365,0.472,0.548,1.175,0.548,2.121v4.863l0.892-0.113v-5.205c0-0.998-0.248-1.776-0.745-2.323
			c-0.497-0.552-1.196-0.825-2.094-0.825c-0.549,0-1.044,0.127-1.484,0.37c-0.441,0.251-0.834,0.626-1.182,1.122v-1.385l-0.916,0.11
			v8.248L149.532,116.241L149.532,116.241z M160.159,115.339c-0.167,0.031-0.317,0.061-0.451,0.077
			c-0.136,0.016-0.261,0.027-0.372,0.027c-0.515,0-0.876-0.143-1.08-0.427c-0.204-0.287-0.308-0.872-0.308-1.746v-4.276h2.131
			v-0.888h-2.131v-2.483l-0.909,0.552v1.931h-0.917l-0.264,0.888h1.181v4.16c0,1.219,0.171,2.055,0.512,2.516
			c0.339,0.455,0.919,0.684,1.738,0.684c0.128,0,0.265-0.011,0.411-0.028c0.145-0.019,0.298-0.047,0.459-0.085V115.339
			L160.159,115.339z M167.343,105.999c0.927,0,1.648,0.245,2.167,0.745c0.519,0.491,0.778,1.178,0.778,2.049
			c0,0.869-0.259,1.556-0.778,2.05c-0.519,0.491-1.24,0.745-2.167,0.745h-0.877v-5.588H167.343L167.343,105.999z M166.466,116.241
			v-3.71h0.894c1.191,0,2.147-0.339,2.864-1.023c0.719-0.681,1.077-1.589,1.077-2.714c0-1.128-0.359-2.033-1.077-2.717
			c-0.717-0.684-1.673-1.029-2.864-1.029h-1.873v11.395L166.466,116.241L166.466,116.241z M173.621,116.241v-11.536l-0.932,0.13
			v11.538L173.621,116.241L173.621,116.241z M176.466,111.943c0.406-0.403,0.924-0.599,1.557-0.599c0.612,0,1.108,0.196,1.488,0.585
			c0.379,0.389,0.57,0.899,0.57,1.523c0,0.623-0.19,1.134-0.57,1.522c-0.38,0.389-0.881,0.585-1.503,0.585
			c-0.623,0-1.136-0.207-1.542-0.607c-0.41-0.403-0.611-0.899-0.611-1.5C175.855,112.845,176.057,112.34,176.466,111.943
			L176.466,111.943z M180.081,116.442l0.917-0.201v-5.762c0-0.897-0.206-1.55-0.618-1.964c-0.412-0.414-1.062-0.626-1.949-0.626
			c-0.357,0-0.727,0.033-1.109,0.108c-0.383,0.066-0.775,0.171-1.174,0.312l-0.359,1.056c0.526-0.223,0.993-0.384,1.403-0.486
			c0.411-0.102,0.79-0.149,1.142-0.149c0.596,0,1.034,0.132,1.32,0.4c0.286,0.27,0.426,0.687,0.426,1.25v1.029
			c-0.286-0.309-0.618-0.543-0.997-0.703c-0.377-0.166-0.773-0.248-1.188-0.248c-0.825,0-1.528,0.295-2.114,0.877
			c-0.585,0.585-0.877,1.294-0.877,2.118c0,0.83,0.292,1.533,0.873,2.118c0.584,0.579,1.288,0.871,2.118,0.871
			c0.43,0,0.83-0.088,1.196-0.259c0.368-0.165,0.698-0.419,0.989-0.756V116.442L180.081,116.442z M188.984,114.701
			c-0.394,0.273-0.799,0.48-1.215,0.621c-0.419,0.146-0.825,0.218-1.218,0.218c-0.93,0-1.727-0.331-2.39-0.99
			c-0.662-0.659-0.993-1.454-0.993-2.375c0-0.924,0.331-1.718,0.993-2.381c0.663-0.659,1.461-0.985,2.39-0.985
			c0.425,0,0.826,0.064,1.207,0.185c0.38,0.124,0.774,0.326,1.178,0.593l0.607-0.731c-0.454-0.32-0.919-0.554-1.401-0.706
			c-0.479-0.149-1.012-0.223-1.59-0.223c-1.229,0-2.255,0.408-3.078,1.214c-0.825,0.808-1.237,1.823-1.237,3.034
			c0,1.208,0.414,2.223,1.241,3.04c0.826,0.819,1.851,1.227,3.074,1.227c0.521,0,1.043-0.088,1.567-0.259
			c0.524-0.171,1.015-0.419,1.472-0.739L188.984,114.701L188.984,114.701z M191.439,112.542c-0.004-0.108-0.007-0.234-0.007-0.384
			c0-0.941,0.326-1.729,0.972-2.369c0.65-0.643,1.443-0.96,2.379-0.96c0.445,0,0.844,0.066,1.19,0.21
			c0.349,0.143,0.639,0.356,0.866,0.634l-5.375,3.2C191.454,112.765,191.446,112.649,191.439,112.542L191.439,112.542z
			 M198.012,114.103c-0.627,0.494-1.193,0.85-1.699,1.068c-0.505,0.218-1.015,0.32-1.53,0.32c-0.651,0-1.235-0.157-1.756-0.474
			c-0.523-0.32-0.934-0.773-1.239-1.36l6.39-3.771c-0.323-0.637-0.776-1.117-1.358-1.454c-0.582-0.331-1.262-0.505-2.037-0.505
			c-1.229,0-2.257,0.408-3.08,1.214c-0.825,0.808-1.237,1.823-1.237,3.034c0,1.208,0.41,2.229,1.229,3.04
			c0.819,0.819,1.848,1.227,3.088,1.227c0.563,0,1.107-0.094,1.633-0.281c0.527-0.19,1.061-0.48,1.596-0.883V114.103
			L198.012,114.103z M200.127,116.241v-5.078c0-0.717,0.204-1.305,0.615-1.774c0.408-0.477,0.921-0.712,1.539-0.712
			c0.605,0,1.056,0.234,1.354,0.698c0.298,0.472,0.447,1.17,0.447,2.116v4.863l0.91-0.113v-5.078c0-0.728,0.199-1.316,0.603-1.787
			c0.401-0.464,0.914-0.698,1.543-0.698c0.6,0,1.052,0.234,1.354,0.703c0.305,0.472,0.455,1.17,0.455,2.11v4.863l0.901-0.113v-5.205
			c0-0.998-0.221-1.776-0.668-2.323c-0.447-0.552-1.076-0.825-1.883-0.825c-0.519,0-0.987,0.149-1.416,0.441
			c-0.429,0.292-0.784,0.709-1.066,1.241c-0.211-0.538-0.523-0.954-0.928-1.247c-0.407-0.287-0.887-0.436-1.44-0.436
			c-0.49,0-0.934,0.132-1.336,0.395c-0.401,0.259-0.731,0.623-0.985,1.098v-1.385l-0.902,0.11v8.248L200.127,116.241
			L200.127,116.241z M212.026,112.542c-0.004-0.108-0.007-0.234-0.007-0.384c0-0.941,0.324-1.729,0.974-2.369
			c0.648-0.643,1.441-0.96,2.376-0.96c0.447,0,0.844,0.066,1.192,0.21c0.349,0.143,0.637,0.356,0.866,0.634l-5.376,3.2
			C212.041,112.765,212.032,112.649,212.026,112.542L212.026,112.542z M218.601,114.103c-0.628,0.494-1.195,0.85-1.699,1.068
			c-0.506,0.218-1.016,0.32-1.532,0.32c-0.649,0-1.234-0.157-1.754-0.474c-0.52-0.32-0.934-0.773-1.236-1.36l6.387-3.771
			c-0.324-0.637-0.776-1.117-1.359-1.454c-0.583-0.331-1.262-0.505-2.039-0.505c-1.227,0-2.255,0.408-3.08,1.214
			c-0.823,0.808-1.236,1.823-1.236,3.034c0,1.208,0.41,2.229,1.228,3.04c0.821,0.819,1.848,1.227,3.088,1.227
			c0.564,0,1.109-0.094,1.637-0.281c0.526-0.19,1.057-0.48,1.594-0.883V114.103L218.601,114.103z M220.729,116.241v-5.078
			c0-0.692,0.242-1.283,0.727-1.768c0.483-0.488,1.051-0.734,1.706-0.734c0.724,0,1.268,0.24,1.632,0.709
			c0.364,0.472,0.547,1.175,0.547,2.121v4.863l0.892-0.113v-5.211c0-0.993-0.249-1.771-0.746-2.317
			c-0.497-0.552-1.195-0.825-2.094-0.825c-0.549,0-1.044,0.127-1.484,0.37c-0.441,0.251-0.836,0.621-1.181,1.122v-1.385l-0.917,0.11
			v8.248L220.729,116.241L220.729,116.241z M231.353,115.339c-0.164,0.031-0.313,0.061-0.449,0.077
			c-0.135,0.016-0.258,0.027-0.37,0.027c-0.517,0-0.876-0.143-1.083-0.427c-0.206-0.287-0.305-0.872-0.305-1.746v-4.284h2.128v-0.88
			h-2.128v-2.483l-0.912,0.552v1.931h-0.917l-0.263,0.88h1.18v4.168c0,1.219,0.17,2.055,0.51,2.516
			c0.341,0.455,0.921,0.684,1.739,0.684c0.127,0,0.265-0.011,0.411-0.028c0.146-0.019,0.299-0.047,0.458-0.085V115.339
			L231.353,115.339z M236.249,114.478c0.407,0.64,0.91,1.131,1.515,1.476c0.604,0.342,1.262,0.521,1.974,0.521
			c1.03,0,1.883-0.315,2.553-0.935c0.669-0.621,1.004-1.396,1.004-2.323c0-0.698-0.208-1.299-0.621-1.793
			c-0.416-0.499-1.036-0.886-1.859-1.167c-0.199-0.064-0.483-0.149-0.852-0.251c-0.678-0.201-1.145-0.367-1.407-0.516
			c-0.345-0.182-0.602-0.411-0.772-0.681c-0.171-0.273-0.256-0.59-0.256-0.949c0-0.588,0.219-1.079,0.658-1.484
			c0.44-0.406,0.972-0.607,1.6-0.607c0.441,0,0.851,0.088,1.225,0.256c0.374,0.174,0.778,0.464,1.21,0.872l0.652-0.756
			c-0.477-0.469-0.954-0.8-1.428-1.012c-0.473-0.207-1.006-0.312-1.593-0.312c-0.964,0-1.764,0.295-2.4,0.877
			c-0.634,0.582-0.953,1.299-0.953,2.149c0,0.742,0.214,1.354,0.639,1.829c0.426,0.474,1.094,0.855,2.011,1.128
			c0.097,0.03,0.236,0.074,0.421,0.124c1.789,0.541,2.681,1.338,2.681,2.389c0,0.637-0.234,1.159-0.706,1.567
			c-0.469,0.419-1.066,0.626-1.789,0.626c-0.565,0-1.073-0.138-1.521-0.408c-0.448-0.268-0.841-0.673-1.176-1.214L236.249,114.478
			L236.249,114.478z M245.231,112.542c-0.005-0.108-0.008-0.234-0.008-0.384c0-0.941,0.324-1.729,0.974-2.369
			c0.65-0.643,1.441-0.965,2.378-0.965c0.445,0,0.844,0.072,1.19,0.215c0.349,0.143,0.639,0.356,0.866,0.634l-5.373,3.2
			C245.245,112.765,245.237,112.649,245.231,112.542L245.231,112.542z M251.805,114.103c-0.628,0.494-1.195,0.85-1.701,1.068
			c-0.505,0.218-1.014,0.32-1.53,0.32c-0.65,0-1.234-0.157-1.756-0.474c-0.521-0.32-0.932-0.773-1.236-1.36l6.387-3.771
			c-0.323-0.637-0.776-1.123-1.359-1.454c-0.582-0.331-1.261-0.505-2.037-0.505c-1.229,0-2.255,0.408-3.078,1.214
			c-0.826,0.808-1.237,1.823-1.237,3.034c0,1.208,0.41,2.229,1.229,3.04c0.818,0.819,1.847,1.227,3.087,1.227
			c0.563,0,1.109-0.094,1.634-0.281c0.527-0.19,1.059-0.48,1.596-0.883V114.103L251.805,114.103z"/>
		<path fill="#58595B" d="M254.308,116.241v-3.07c0-1.423,0.221-2.496,0.663-3.216c0.441-0.717,1.124-1.12,2.049-1.214l0.377-0.897
			h-0.225c-0.627,0-1.18,0.157-1.656,0.48c-0.476,0.315-0.877,0.795-1.208,1.437v-1.771l-0.909,0.116v8.248L254.308,116.241
			L254.308,116.241z M265.092,108.167l-0.901-0.24l-3.009,6.419l-2.998-6.419l-0.917,0.276l3.915,8.22L265.092,108.167
			L265.092,108.167z"/>
		<path fill="#58595B" d="M266.199,106.297l0.703-0.841l-0.703-0.75l-0.684,0.841L266.199,106.297L266.199,106.297z
			 M266.679,116.241v-8.25l-0.934,0.116v8.267L266.679,116.241L266.679,116.241z M274.84,114.701c-0.394,0.273-0.8,0.48-1.216,0.621
			c-0.419,0.146-0.823,0.218-1.217,0.218c-0.931,0-1.728-0.331-2.392-0.99c-0.661-0.659-0.991-1.454-0.991-2.375
			c0-0.924,0.331-1.718,0.991-2.381c0.663-0.659,1.461-0.985,2.392-0.985c0.423,0,0.829,0.064,1.209,0.185
			c0.381,0.124,0.771,0.326,1.175,0.593l0.607-0.731c-0.454-0.32-0.92-0.554-1.4-0.706c-0.481-0.149-1.014-0.223-1.592-0.223
			c-1.229,0-2.255,0.408-3.08,1.214c-0.825,0.808-1.234,1.823-1.234,3.034c0,1.208,0.412,2.223,1.238,3.04
			c0.826,0.819,1.854,1.227,3.076,1.227c0.52,0,1.044-0.088,1.568-0.259c0.523-0.171,1.014-0.419,1.469-0.739L274.84,114.701
			L274.84,114.701z M277.328,112.542c-0.004-0.108-0.007-0.234-0.007-0.384c0-0.941,0.324-1.729,0.972-2.369
			c0.648-0.643,1.441-0.965,2.378-0.965c0.447,0,0.844,0.072,1.193,0.215c0.348,0.143,0.636,0.356,0.865,0.634l-5.377,3.2
			C277.342,112.765,277.333,112.649,277.328,112.542L277.328,112.542z M283.901,114.103c-0.627,0.494-1.194,0.85-1.699,1.068
			c-0.506,0.218-1.015,0.32-1.531,0.32c-0.648,0-1.234-0.157-1.754-0.474c-0.523-0.32-0.934-0.773-1.237-1.36l6.39-3.771
			c-0.325-0.637-0.779-1.123-1.361-1.454c-0.582-0.331-1.262-0.505-2.037-0.505c-1.229,0-2.255,0.408-3.079,1.214
			c-0.825,0.808-1.237,1.823-1.237,3.034c0,1.208,0.41,2.229,1.229,3.04c0.818,0.819,1.847,1.227,3.087,1.227
			c0.564,0,1.109-0.094,1.634-0.281c0.527-0.19,1.058-0.48,1.596-0.883V114.103L283.901,114.103z M285.773,116.166
			c0.458,0.218,0.973,0.325,1.535,0.325c0.797,0,1.459-0.245,1.986-0.728c0.527-0.486,0.79-1.092,0.79-1.823
			c0-0.563-0.174-1.034-0.52-1.409c-0.343-0.378-0.863-0.665-1.554-0.861c-0.117-0.039-0.294-0.083-0.525-0.135
			c-1.123-0.267-1.684-0.725-1.684-1.374c0-0.425,0.155-0.767,0.466-1.026c0.312-0.262,0.723-0.394,1.233-0.394
			c0.308,0,0.623,0.075,0.941,0.212c0.32,0.138,0.634,0.339,0.941,0.607l0.576-0.75c-0.346-0.301-0.724-0.532-1.135-0.687
			c-0.408-0.155-0.844-0.234-1.306-0.234c-0.778,0-1.419,0.223-1.922,0.67c-0.505,0.441-0.759,0.99-0.759,1.636
			c0,0.621,0.185,1.101,0.559,1.448c0.372,0.351,1.069,0.654,2.091,0.905c0.599,0.149,1.017,0.337,1.252,0.565
			c0.233,0.229,0.35,0.543,0.35,0.946c0,0.447-0.162,0.806-0.48,1.087c-0.317,0.287-0.731,0.425-1.236,0.425
			c-0.404,0-0.784-0.086-1.138-0.254c-0.353-0.171-0.676-0.419-0.967-0.761l-0.687,0.659
			C284.915,115.631,285.312,115.954,285.773,116.166L285.773,116.166z"/>
	</g>
</g>
<g id="Guides">
</g>
</svg>
