<?xml version="1.0" encoding="utf-8"?>
<!-- Generator: Adobe Illustrator 17.0.0, SVG Export Plug-In . SVG Version: 6.00 Build 0)  -->
<!DOCTYPE svg PUBLIC "-//W3C//DTD SVG 1.1//EN" "http://www.w3.org/Graphics/SVG/1.1/DTD/svg11.dtd">
<svg version="1.1" xmlns="http://www.w3.org/2000/svg" xmlns:xlink="http://www.w3.org/1999/xlink" x="0px" y="0px" width="120px"
	 height="44px" viewBox="0 0 120 44" enable-background="new 0 0 120 44" xml:space="preserve">
<g id="Base">
</g>
<g id="Art">
	<g>
		<polyline fill-rule="evenodd" clip-rule="evenodd" fill="#FFFFFF" points="41.122,2 35.33,7.383 37.184,9.096 41.122,5.438 
			56.806,19.998 60.503,19.998 41.122,2 		"/>
		<polyline fill-rule="evenodd" clip-rule="evenodd" fill="#FFFFFF" points="29.536,2 10.155,19.998 13.853,19.998 29.536,5.438 
			45.221,19.998 48.918,19.998 29.536,2 		"/>
		<rect x="29.777" y="12.28" fill-rule="evenodd" clip-rule="evenodd" fill="#FFFFFF" width="3.788" height="3.62"/>
		<rect x="29.777" y="16.391" fill-rule="evenodd" clip-rule="evenodd" fill="#FFFFFF" width="3.788" height="3.617"/>
		<rect x="25.51" y="12.28" fill-rule="evenodd" clip-rule="evenodd" fill="#FFFFFF" width="3.787" height="3.62"/>
		<rect x="25.51" y="16.391" fill-rule="evenodd" clip-rule="evenodd" fill="#FFFFFF" width="3.787" height="3.617"/>
		<polyline fill-rule="evenodd" clip-rule="evenodd" fill="#FFFFFF" points="52.697,2 46.905,7.383 48.759,9.096 52.697,5.438 
			68.381,19.998 72.078,19.998 52.697,2 		"/>
		<path fill="#FFFFFF" d="M6.172,34.049v-8.45h2.36v-0.796H2.989l-0.205,0.796h2.564v8.571L6.172,34.049L6.172,34.049z
			 M10.266,34.049v-4.342h5.3v4.463l0.824-0.121v-9.365l-0.824,0.119v4.133h-5.3v-4.252l-0.811,0.119v9.367L10.266,34.049
			L10.266,34.049z M23.1,34.049l0.179-0.783h-4.522v-3.559h3.671v-0.758h-3.671v-3.377h4.331l-0.191-0.769h-4.951v9.246H23.1
			L23.1,34.049z M31.433,26.232l1.675,3.336h-3.336L31.433,26.232L31.433,26.232z M27.406,34.144l1.958-3.804h4.12l1.918,3.804
			l0.798-0.245l-4.727-9.382l-4.845,9.401L27.406,34.144L27.406,34.144z M37.439,34.049v-7.303l6.249,7.482v-9.586l-0.811,0.16
			v7.289l-6.249-7.449v9.586L37.439,34.049L37.439,34.049z M48.89,26.232l1.673,3.336h-3.335L48.89,26.232L48.89,26.232z
			 M44.862,34.144l1.958-3.804h4.12l1.918,3.804l0.797-0.245l-4.727-9.382l-4.845,9.401L44.862,34.144L44.862,34.144z
			 M61.849,29.028l-0.303,0.784h3.111v2.78c-0.377,0.292-0.779,0.509-1.203,0.656c-0.424,0.148-0.865,0.222-1.322,0.222
			c-1.121,0-2.067-0.39-2.841-1.164c-0.773-0.775-1.16-1.737-1.16-2.884s0.388-2.109,1.164-2.888
			c0.776-0.778,1.727-1.167,2.851-1.167c0.483,0,0.947,0.083,1.391,0.252c0.444,0.166,0.861,0.416,1.252,0.749l0.527-0.606
			c-0.439-0.387-0.926-0.676-1.46-0.873c-0.533-0.194-1.104-0.292-1.71-0.292c-0.729,0-1.404,0.139-2.024,0.416
			c-0.62,0.275-1.156,0.676-1.608,1.205c-0.391,0.453-0.693,0.955-0.904,1.506c-0.21,0.552-0.316,1.117-0.316,1.698
			c0,0.659,0.134,1.301,0.402,1.924c0.268,0.624,0.639,1.161,1.114,1.608c0.443,0.428,0.948,0.751,1.513,0.969
			c0.565,0.222,1.172,0.331,1.823,0.331c0.646,0,1.249-0.109,1.81-0.331c0.56-0.218,1.063-0.541,1.506-0.969v-3.927H61.849
			L61.849,29.028z M67.671,34.049v-8.464h0.646c0.673,0,1.197,0.174,1.573,0.521c0.375,0.349,0.563,0.831,0.563,1.451
			c0,0.62-0.188,1.102-0.563,1.451c-0.376,0.346-0.9,0.521-1.573,0.521l-0.646-0.015l3.56,4.668l0.746-0.468l-2.849-3.541
			c0.668-0.099,1.203-0.391,1.602-0.869c0.399-0.479,0.6-1.069,0.6-1.772c0-0.828-0.268-1.488-0.804-1.984
			c-0.537-0.497-1.251-0.746-2.143-0.746H66.86v9.415L67.671,34.049L67.671,34.049z M74.229,26.535
			c0.778-0.778,1.728-1.167,2.848-1.167c1.116,0,2.061,0.389,2.835,1.167c0.774,0.778,1.161,1.741,1.161,2.888
			c0,1.141-0.389,2.102-1.167,2.88c-0.778,0.778-1.725,1.168-2.841,1.168c-1.12,0-2.068-0.39-2.841-1.164
			c-0.774-0.775-1.161-1.737-1.161-2.884S73.452,27.314,74.229,26.535L74.229,26.535z M72.625,31.338
			c0.266,0.622,0.638,1.162,1.117,1.617c0.443,0.428,0.948,0.751,1.513,0.969c0.564,0.222,1.172,0.331,1.822,0.331
			c0.646,0,1.25-0.109,1.81-0.331c0.56-0.218,1.062-0.541,1.506-0.969c0.475-0.447,0.846-0.984,1.114-1.608
			c0.268-0.623,0.402-1.265,0.402-1.924c0-0.687-0.129-1.331-0.389-1.935c-0.259-0.604-0.634-1.136-1.127-1.593
			c-0.452-0.43-0.958-0.755-1.517-0.973c-0.558-0.218-1.157-0.325-1.799-0.325c-0.65,0-1.258,0.109-1.822,0.329
			c-0.565,0.22-1.07,0.543-1.513,0.969c-0.479,0.457-0.851,0.994-1.117,1.612c-0.267,0.616-0.399,1.255-0.399,1.915
			C72.226,30.078,72.358,30.716,72.625,31.338L72.625,31.338z M83.056,30.662c0,0.747,0.053,1.305,0.158,1.674
			c0.105,0.37,0.282,0.688,0.527,0.956c0.268,0.298,0.625,0.531,1.071,0.699c0.446,0.166,0.931,0.249,1.454,0.249
			c0.526,0,1.013-0.083,1.456-0.249c0.444-0.168,0.8-0.401,1.068-0.699c0.255-0.271,0.436-0.596,0.544-0.973
			c0.107-0.376,0.161-0.929,0.161-1.657v-5.978l-0.851,0.117v5.849c0,1.027-0.182,1.749-0.547,2.162
			c-0.365,0.411-0.976,0.621-1.832,0.621c-0.853,0-1.461-0.21-1.826-0.625c-0.365-0.415-0.547-1.135-0.547-2.158v-5.966
			l-0.837,0.117V30.662L83.056,30.662z M92.556,25.585c0.765,0,1.36,0.205,1.789,0.614c0.429,0.409,0.643,0.973,0.643,1.694
			c0,0.721-0.214,1.284-0.643,1.693c-0.429,0.41-1.024,0.614-1.789,0.614H91.83v-4.616H92.556L92.556,25.585z M91.83,34.049v-3.063
			h0.738c0.985,0,1.774-0.283,2.367-0.847c0.593-0.565,0.89-1.313,0.89-2.245c0-0.933-0.297-1.681-0.89-2.246
			c-0.593-0.562-1.382-0.847-2.367-0.847H91.02v9.415L91.83,34.049L91.83,34.049z M104.441,34.049l0.284-0.81h-3.284v-8.53
			l-0.824,0.092v9.248H104.441L104.441,34.049z M109.287,34.049l0.284-0.81h-3.283v-8.53l-0.825,0.092v9.248H109.287L109.287,34.049
			z M116.683,32.918c-0.355,0.188-0.694,0.327-1.012,0.416c-0.319,0.092-0.643,0.137-0.973,0.137c-1.124,0-2.073-0.388-2.844-1.162
			c-0.772-0.772-1.158-1.734-1.158-2.886c0-1.153,0.387-2.113,1.161-2.884c0.773-0.772,1.725-1.156,2.855-1.156
			c0.369,0,0.716,0.046,1.041,0.141c0.326,0.095,0.631,0.235,0.917,0.424l-0.178-1.021c-0.294-0.11-0.586-0.193-0.874-0.247
			c-0.288-0.056-0.581-0.082-0.88-0.082c-0.576,0-1.114,0.084-1.615,0.25c-0.501,0.168-0.967,0.418-1.398,0.751
			c-0.58,0.453-1.036,1.019-1.368,1.699c-0.332,0.679-0.498,1.386-0.498,2.125c0,0.734,0.166,1.441,0.498,2.122
			c0.332,0.682,0.788,1.25,1.368,1.708c0.417,0.329,0.878,0.578,1.381,0.748c0.503,0.169,1.043,0.254,1.618,0.254
			c0.308,0,0.61-0.031,0.907-0.09c0.296-0.059,0.597-0.151,0.899-0.279L116.683,32.918L116.683,32.918z"/>
		<path fill="#FFFFFF" d="M44.837,41.911v-3.62h1.011v-0.343h-2.375l-0.087,0.343h1.098v3.673L44.837,41.911L44.837,41.911z
			 M45.864,40.602c-0.002-0.038-0.003-0.083-0.003-0.136c0-0.333,0.115-0.612,0.344-0.839c0.229-0.228,0.51-0.34,0.841-0.34
			c0.159,0,0.299,0.023,0.423,0.074c0.123,0.051,0.226,0.126,0.306,0.225l-1.903,1.133C45.868,40.681,45.865,40.64,45.864,40.602
			L45.864,40.602z M48.191,41.154c-0.223,0.175-0.423,0.301-0.602,0.378c-0.179,0.077-0.359,0.113-0.542,0.113
			c-0.229,0-0.437-0.056-0.621-0.168c-0.185-0.113-0.331-0.273-0.438-0.481l2.262-1.335c-0.115-0.226-0.275-0.396-0.481-0.515
			c-0.206-0.117-0.446-0.179-0.722-0.179c-0.435,0-0.797,0.145-1.089,0.43c-0.292,0.286-0.438,0.646-0.438,1.074
			c0,0.428,0.145,0.789,0.435,1.076c0.291,0.29,0.655,0.434,1.093,0.434c0.2,0,0.393-0.033,0.58-0.1
			c0.186-0.067,0.374-0.17,0.565-0.312V41.154L48.191,41.154z"/>
		<path fill="#FFFFFF" d="M48.956,41.911v-1.798c0-0.245,0.086-0.454,0.257-0.626c0.171-0.173,0.373-0.26,0.604-0.26
			c0.256,0,0.448,0.085,0.578,0.251c0.128,0.167,0.194,0.416,0.194,0.751v1.722l0.316-0.04v-1.843c0-0.354-0.088-0.629-0.264-0.822
			c-0.176-0.195-0.423-0.292-0.742-0.292c-0.193,0-0.369,0.045-0.524,0.131c-0.157,0.089-0.296,0.222-0.418,0.397v-0.49
			l-0.324,0.039v2.92L48.956,41.911L48.956,41.911z M51.852,40.39c0.144-0.143,0.328-0.212,0.552-0.212
			c0.217,0,0.392,0.069,0.527,0.207c0.135,0.138,0.202,0.318,0.202,0.539c0,0.221-0.067,0.401-0.202,0.539
			c-0.135,0.138-0.312,0.207-0.533,0.207c-0.22,0-0.402-0.073-0.546-0.215c-0.145-0.143-0.216-0.318-0.216-0.531
			C51.635,40.709,51.707,40.53,51.852,40.39L51.852,40.39z M53.133,41.982l0.325-0.071v-2.04c0-0.317-0.073-0.549-0.219-0.695
			c-0.146-0.146-0.376-0.222-0.69-0.222c-0.126,0-0.257,0.012-0.393,0.038c-0.136,0.023-0.274,0.061-0.416,0.11l-0.127,0.374
			c0.187-0.079,0.352-0.136,0.497-0.172c0.145-0.036,0.279-0.053,0.404-0.053c0.211,0,0.366,0.047,0.467,0.142
			c0.101,0.096,0.151,0.243,0.151,0.442V40.2c-0.101-0.109-0.219-0.192-0.353-0.249c-0.134-0.059-0.274-0.088-0.421-0.088
			c-0.292,0-0.541,0.104-0.748,0.311c-0.208,0.209-0.311,0.458-0.311,0.75c0,0.294,0.103,0.543,0.309,0.75
			c0.207,0.205,0.457,0.308,0.75,0.308c0.153,0,0.294-0.031,0.424-0.092c0.13-0.059,0.247-0.148,0.351-0.268V41.982L53.133,41.982z
			 M54.352,41.911v-1.798c0-0.245,0.086-0.454,0.257-0.626c0.171-0.173,0.373-0.26,0.604-0.26c0.256,0,0.449,0.085,0.577,0.251
			c0.129,0.167,0.194,0.416,0.194,0.751v1.722l0.316-0.04v-1.843c0-0.354-0.088-0.629-0.264-0.822
			c-0.176-0.195-0.423-0.292-0.741-0.292c-0.194,0-0.37,0.045-0.525,0.131c-0.156,0.089-0.295,0.222-0.418,0.397v-0.49l-0.324,0.039
			v2.92L54.352,41.911L54.352,41.911z M58.114,41.592c-0.059,0.011-0.112,0.021-0.16,0.027c-0.048,0.006-0.092,0.01-0.132,0.01
			c-0.182,0-0.31-0.051-0.382-0.151c-0.072-0.102-0.109-0.309-0.109-0.618v-1.514h0.754v-0.314h-0.754v-0.879l-0.322,0.195v0.684
			h-0.325l-0.093,0.314h0.418v1.473c0,0.432,0.061,0.728,0.181,0.891c0.12,0.161,0.325,0.242,0.615,0.242
			c0.045,0,0.094-0.004,0.146-0.01c0.051-0.007,0.105-0.017,0.163-0.03V41.592L58.114,41.592z M60.657,38.285
			c0.328,0,0.584,0.087,0.767,0.264c0.184,0.174,0.275,0.417,0.275,0.725c0,0.308-0.092,0.551-0.275,0.726
			c-0.184,0.174-0.439,0.264-0.767,0.264h-0.31v-1.979H60.657L60.657,38.285z M60.347,41.911v-1.313h0.316
			c0.422,0,0.76-0.12,1.014-0.362c0.254-0.241,0.381-0.562,0.381-0.961c0-0.399-0.127-0.72-0.381-0.962
			c-0.254-0.242-0.592-0.364-1.014-0.364H60v4.034L60.347,41.911L60.347,41.911z M62.88,41.911v-4.084l-0.33,0.046v4.085
			L62.88,41.911L62.88,41.911z M63.887,40.39c0.144-0.143,0.327-0.212,0.551-0.212c0.217,0,0.392,0.069,0.527,0.207
			c0.134,0.138,0.202,0.318,0.202,0.539c0,0.221-0.067,0.401-0.202,0.539c-0.135,0.138-0.312,0.207-0.532,0.207
			c-0.221,0-0.402-0.073-0.546-0.215c-0.145-0.143-0.216-0.318-0.216-0.531C63.671,40.709,63.742,40.53,63.887,40.39L63.887,40.39z
			 M65.167,41.982l0.325-0.071v-2.04c0-0.317-0.073-0.549-0.219-0.695c-0.146-0.146-0.376-0.222-0.69-0.222
			c-0.126,0-0.257,0.012-0.393,0.038c-0.136,0.023-0.274,0.061-0.416,0.11l-0.127,0.374c0.186-0.079,0.352-0.136,0.497-0.172
			c0.145-0.036,0.28-0.053,0.404-0.053c0.211,0,0.366,0.047,0.467,0.142c0.101,0.096,0.151,0.243,0.151,0.442V40.2
			c-0.101-0.109-0.219-0.192-0.353-0.249c-0.133-0.059-0.273-0.088-0.42-0.088c-0.292,0-0.541,0.104-0.749,0.311
			c-0.207,0.207-0.31,0.458-0.31,0.75c0,0.294,0.103,0.543,0.309,0.75c0.207,0.205,0.456,0.308,0.75,0.308
			c0.152,0,0.294-0.031,0.423-0.092c0.13-0.059,0.247-0.148,0.35-0.268V41.982L65.167,41.982z M68.319,41.366
			c-0.14,0.097-0.283,0.17-0.43,0.22c-0.148,0.052-0.292,0.077-0.431,0.077c-0.329,0-0.611-0.117-0.846-0.351
			c-0.234-0.233-0.352-0.515-0.352-0.841c0-0.327,0.117-0.608,0.352-0.843c0.235-0.233,0.517-0.349,0.846-0.349
			c0.15,0,0.292,0.022,0.427,0.065c0.135,0.044,0.274,0.115,0.417,0.21l0.215-0.259c-0.161-0.113-0.325-0.196-0.496-0.25
			c-0.169-0.053-0.358-0.079-0.563-0.079c-0.435,0-0.798,0.145-1.09,0.43c-0.292,0.286-0.438,0.646-0.438,1.074
			c0,0.428,0.146,0.787,0.439,1.076c0.293,0.29,0.655,0.434,1.088,0.434c0.185,0,0.369-0.031,0.555-0.092
			c0.186-0.061,0.359-0.148,0.521-0.262L68.319,41.366L68.319,41.366z M69.188,40.602c-0.001-0.038-0.002-0.083-0.002-0.136
			c0-0.333,0.115-0.612,0.344-0.839c0.23-0.228,0.511-0.34,0.842-0.34c0.158,0,0.299,0.023,0.421,0.074
			c0.124,0.051,0.226,0.126,0.307,0.225l-1.903,1.133C69.194,40.681,69.191,40.64,69.188,40.602L69.188,40.602z M71.515,41.154
			c-0.222,0.175-0.422,0.301-0.602,0.378c-0.179,0.077-0.359,0.113-0.541,0.113c-0.231,0-0.437-0.056-0.622-0.168
			c-0.185-0.113-0.331-0.273-0.439-0.481l2.262-1.335c-0.114-0.226-0.275-0.396-0.481-0.515c-0.206-0.117-0.447-0.179-0.721-0.179
			c-0.435,0-0.799,0.145-1.09,0.43c-0.292,0.286-0.438,0.646-0.438,1.074c0,0.428,0.145,0.789,0.435,1.076
			c0.29,0.29,0.654,0.434,1.093,0.434c0.199,0,0.392-0.033,0.578-0.1c0.187-0.067,0.376-0.17,0.565-0.312V41.154L71.515,41.154z
			 M72.264,41.911v-1.798c0-0.254,0.072-0.462,0.218-0.628c0.145-0.169,0.326-0.252,0.545-0.252c0.214,0,0.374,0.083,0.479,0.247
			c0.105,0.167,0.158,0.414,0.158,0.749v1.722l0.322-0.04v-1.798c0-0.258,0.07-0.466,0.213-0.633
			c0.142-0.164,0.324-0.247,0.546-0.247c0.212,0,0.373,0.083,0.48,0.249c0.108,0.167,0.161,0.414,0.161,0.747v1.722l0.319-0.04
			v-1.843c0-0.354-0.078-0.629-0.236-0.822c-0.158-0.195-0.381-0.292-0.667-0.292c-0.184,0-0.35,0.053-0.501,0.156
			c-0.152,0.104-0.277,0.251-0.378,0.439c-0.075-0.19-0.185-0.338-0.329-0.441c-0.144-0.102-0.314-0.154-0.51-0.154
			c-0.173,0-0.33,0.047-0.473,0.14c-0.142,0.092-0.259,0.221-0.349,0.389v-0.49l-0.319,0.039v2.92L72.264,41.911L72.264,41.911z
			 M76.477,40.602c-0.002-0.038-0.003-0.083-0.003-0.136c0-0.333,0.115-0.612,0.345-0.839c0.229-0.228,0.51-0.34,0.841-0.34
			c0.158,0,0.299,0.023,0.422,0.074c0.124,0.051,0.226,0.126,0.307,0.225l-1.903,1.133C76.482,40.681,76.479,40.64,76.477,40.602
			L76.477,40.602z M78.804,41.154c-0.222,0.175-0.423,0.301-0.602,0.378c-0.179,0.077-0.36,0.113-0.543,0.113
			c-0.23,0-0.437-0.056-0.621-0.168c-0.184-0.113-0.331-0.273-0.438-0.481l2.261-1.335c-0.115-0.226-0.275-0.396-0.481-0.515
			c-0.206-0.117-0.447-0.179-0.722-0.179c-0.434,0-0.798,0.145-1.09,0.43c-0.291,0.286-0.437,0.646-0.437,1.074
			c0,0.428,0.145,0.789,0.435,1.076c0.291,0.29,0.654,0.434,1.093,0.434c0.2,0,0.393-0.033,0.58-0.1
			c0.186-0.067,0.374-0.17,0.564-0.312V41.154L78.804,41.154z M79.558,41.911v-1.798c0-0.245,0.086-0.454,0.257-0.626
			c0.171-0.173,0.372-0.26,0.604-0.26c0.256,0,0.449,0.085,0.578,0.251c0.129,0.167,0.194,0.416,0.194,0.751v1.722l0.316-0.04
			v-1.845c0-0.352-0.088-0.627-0.264-0.82c-0.176-0.195-0.423-0.292-0.741-0.292c-0.194,0-0.37,0.045-0.525,0.131
			c-0.156,0.089-0.296,0.22-0.418,0.397v-0.49l-0.325,0.039v2.92L79.558,41.911L79.558,41.911z M83.319,41.592
			c-0.058,0.011-0.111,0.021-0.159,0.027c-0.048,0.006-0.091,0.01-0.131,0.01c-0.183,0-0.31-0.051-0.383-0.151
			c-0.073-0.102-0.108-0.309-0.108-0.618v-1.517h0.753v-0.312h-0.753v-0.879l-0.323,0.195v0.684H81.89l-0.093,0.312h0.418v1.476
			c0,0.432,0.06,0.728,0.181,0.891c0.121,0.161,0.326,0.242,0.616,0.242c0.045,0,0.094-0.004,0.146-0.01
			c0.052-0.007,0.106-0.017,0.162-0.03V41.592L83.319,41.592z M85.052,41.287c0.144,0.227,0.322,0.4,0.536,0.522
			c0.214,0.121,0.447,0.185,0.699,0.185c0.365,0,0.667-0.111,0.904-0.331c0.237-0.22,0.355-0.494,0.355-0.822
			c0-0.247-0.074-0.46-0.22-0.635c-0.147-0.177-0.367-0.313-0.658-0.413c-0.07-0.022-0.171-0.053-0.302-0.089
			c-0.24-0.071-0.405-0.13-0.498-0.183c-0.122-0.064-0.213-0.146-0.273-0.241c-0.061-0.097-0.091-0.209-0.091-0.336
			c0-0.208,0.078-0.382,0.233-0.525c0.156-0.144,0.344-0.215,0.566-0.215c0.156,0,0.301,0.031,0.434,0.091
			c0.132,0.062,0.275,0.164,0.428,0.309l0.231-0.267c-0.169-0.166-0.338-0.283-0.505-0.358c-0.168-0.073-0.356-0.11-0.564-0.11
			c-0.341,0-0.624,0.105-0.85,0.311c-0.225,0.206-0.337,0.46-0.337,0.761c0,0.263,0.076,0.479,0.226,0.648
			c0.151,0.168,0.387,0.303,0.712,0.399c0.034,0.011,0.084,0.026,0.149,0.044c0.633,0.191,0.949,0.474,0.949,0.846
			c0,0.226-0.083,0.41-0.25,0.555c-0.166,0.148-0.378,0.222-0.633,0.222c-0.2,0-0.38-0.049-0.539-0.145
			c-0.159-0.095-0.298-0.238-0.416-0.43L85.052,41.287L85.052,41.287z M88.233,40.602c-0.002-0.038-0.003-0.083-0.003-0.136
			c0-0.333,0.115-0.612,0.345-0.839c0.23-0.228,0.51-0.342,0.842-0.342c0.158,0,0.299,0.025,0.421,0.076
			c0.124,0.051,0.226,0.126,0.307,0.225l-1.902,1.133C88.238,40.681,88.235,40.64,88.233,40.602L88.233,40.602z M90.56,41.154
			c-0.222,0.175-0.423,0.301-0.602,0.378c-0.179,0.077-0.359,0.113-0.542,0.113c-0.23,0-0.437-0.056-0.622-0.168
			c-0.185-0.113-0.33-0.273-0.438-0.481l2.261-1.335c-0.114-0.226-0.275-0.397-0.481-0.515c-0.206-0.117-0.446-0.179-0.721-0.179
			c-0.435,0-0.798,0.145-1.09,0.43c-0.292,0.286-0.438,0.646-0.438,1.074c0,0.428,0.145,0.789,0.435,1.076
			c0.29,0.29,0.654,0.434,1.093,0.434c0.199,0,0.393-0.033,0.579-0.1c0.187-0.067,0.375-0.17,0.565-0.312V41.154L90.56,41.154z"/>
		<path fill="#FFFFFF" d="M91.446,41.911v-1.087c0-0.504,0.078-0.884,0.235-1.139c0.156-0.254,0.398-0.396,0.726-0.43l0.133-0.317
			h-0.08c-0.222,0-0.418,0.056-0.586,0.17c-0.168,0.111-0.311,0.281-0.428,0.509V38.99l-0.322,0.041v2.92L91.446,41.911
			L91.446,41.911z M95.264,39.053l-0.319-0.085L93.88,41.24l-1.062-2.272l-0.325,0.098l1.386,2.91L95.264,39.053L95.264,39.053z"/>
		<path fill="#FFFFFF" d="M95.656,38.391l0.249-0.298l-0.249-0.266l-0.242,0.298L95.656,38.391L95.656,38.391z M95.826,41.911V38.99
			l-0.331,0.041v2.927L95.826,41.911L95.826,41.911z M98.715,41.366c-0.14,0.097-0.283,0.17-0.431,0.22
			c-0.148,0.052-0.291,0.077-0.431,0.077c-0.33,0-0.612-0.117-0.847-0.351c-0.234-0.233-0.351-0.515-0.351-0.841
			c0-0.327,0.117-0.608,0.351-0.843c0.235-0.233,0.517-0.349,0.847-0.349c0.15,0,0.293,0.022,0.428,0.065
			c0.135,0.044,0.273,0.115,0.416,0.21l0.215-0.259c-0.161-0.113-0.326-0.196-0.496-0.25c-0.17-0.053-0.359-0.079-0.563-0.079
			c-0.435,0-0.798,0.145-1.09,0.43c-0.292,0.286-0.437,0.646-0.437,1.074c0,0.428,0.146,0.787,0.438,1.076
			c0.293,0.29,0.656,0.434,1.089,0.434c0.184,0,0.37-0.031,0.555-0.092c0.185-0.061,0.359-0.148,0.52-0.262L98.715,41.366
			L98.715,41.366z M99.596,40.602c-0.001-0.038-0.002-0.083-0.002-0.136c0-0.333,0.115-0.612,0.344-0.839
			c0.229-0.228,0.51-0.342,0.842-0.342c0.158,0,0.299,0.025,0.422,0.076c0.123,0.051,0.225,0.126,0.306,0.225l-1.904,1.133
			C99.601,40.681,99.598,40.64,99.596,40.602L99.596,40.602z M101.923,41.154c-0.222,0.175-0.423,0.301-0.602,0.378
			c-0.179,0.077-0.359,0.113-0.542,0.113c-0.229,0-0.437-0.056-0.621-0.168c-0.185-0.113-0.331-0.273-0.438-0.481l2.262-1.335
			c-0.115-0.226-0.276-0.397-0.482-0.515c-0.206-0.117-0.447-0.179-0.721-0.179c-0.435,0-0.798,0.145-1.09,0.43
			c-0.292,0.286-0.438,0.646-0.438,1.074c0,0.428,0.145,0.789,0.435,1.076c0.29,0.29,0.654,0.434,1.093,0.434
			c0.2,0,0.393-0.033,0.579-0.1c0.187-0.067,0.375-0.17,0.565-0.312V41.154L101.923,41.154z M102.586,41.885
			c0.162,0.077,0.344,0.115,0.544,0.115c0.282,0,0.517-0.087,0.703-0.258c0.187-0.172,0.28-0.387,0.28-0.645
			c0-0.199-0.061-0.366-0.184-0.499c-0.122-0.134-0.306-0.235-0.55-0.305c-0.041-0.014-0.104-0.029-0.186-0.048
			c-0.397-0.095-0.596-0.257-0.596-0.486c0-0.15,0.055-0.271,0.165-0.363c0.11-0.093,0.256-0.14,0.437-0.14
			c0.109,0,0.221,0.026,0.333,0.075c0.113,0.049,0.225,0.12,0.333,0.215l0.204-0.266c-0.123-0.106-0.256-0.188-0.402-0.243
			c-0.144-0.055-0.299-0.083-0.462-0.083c-0.275,0-0.502,0.079-0.681,0.237c-0.179,0.156-0.269,0.351-0.269,0.579
			c0,0.22,0.065,0.39,0.198,0.513c0.132,0.124,0.378,0.232,0.74,0.32c0.212,0.053,0.36,0.119,0.443,0.2
			c0.083,0.081,0.124,0.192,0.124,0.335c0,0.158-0.057,0.285-0.17,0.385c-0.112,0.101-0.259,0.15-0.438,0.15
			c-0.143,0-0.277-0.03-0.403-0.09c-0.125-0.06-0.239-0.148-0.342-0.27l-0.243,0.233C102.282,41.695,102.423,41.81,102.586,41.885
			L102.586,41.885z"/>
	</g>
</g>
<g id="Guides">
</g>
</svg>
