<?xml version="1.0" encoding="utf-8"?>
<!-- Generator: Adobe Illustrator 17.0.0, SVG Export Plug-In . SVG Version: 6.00 Build 0)  -->
<!DOCTYPE svg PUBLIC "-//W3C//DTD SVG 1.1//EN" "http://www.w3.org/Graphics/SVG/1.1/DTD/svg11.dtd">
<svg version="1.1" xmlns="http://www.w3.org/2000/svg" xmlns:xlink="http://www.w3.org/1999/xlink" x="0px" y="0px" width="64px"
	 height="40px" viewBox="0 0 64 40" enable-background="new 0 0 64 40" xml:space="preserve">
<g id="Base">
</g>
<g id="Art">
	<g>
		<path fill="#929497" d="M51.105,5.342c-0.637-0.354-1.632-0.534-2.994-0.534c-0.673,0-1.35,0.054-2.029,0.159
			c-0.499,0.076-0.55,0.09-0.859,0.156C44.585,5.262,44.487,5.9,44.487,5.9l-0.205,0.842c-0.116,0.537,0.19,0.516,0.327,0.474
			c0.278-0.084,0.429-0.167,0.997-0.296c0.542-0.123,1.115-0.215,1.573-0.211c0.671,0,1.181,0.072,1.52,0.215
			c0.339,0.148,0.507,0.399,0.507,0.76c0.001,0.086,0.003,0.166-0.028,0.237c-0.028,0.065-0.081,0.13-0.242,0.151
			c-0.958,0.057-1.645,0.145-2.472,0.266c-0.816,0.114-1.531,0.312-2.128,0.584c-0.637,0.283-1.113,0.66-1.441,1.139
			c-0.32,0.482-0.48,1.064-0.481,1.75c0,0.649,0.233,1.178,0.684,1.588c0.457,0.405,1.05,0.606,1.768,0.606
			c0.449-0.003,0.8-0.035,1.052-0.098c0.249-0.062,0.521-0.152,0.808-0.277c0.214-0.089,0.446-0.219,0.69-0.381
			c0.245-0.164,0.414-0.279,0.631-0.422l0.008,0.014l-0.061,0.27c0,0.003-0.004,0.004-0.004,0.007l0.002,0.005
			c-0.07,0.325,0.125,0.596,0.447,0.627l0.004,0.006h0.028l0.001,0.002c0.214,0,0.947-0.001,1.29-0.002h0.239
			c0.016,0,0.018-0.005,0.024-0.008c0.329-0.041,0.644-0.309,0.718-0.63l1.224-5.282c0.028-0.125,0.05-0.268,0.063-0.434
			c0.016-0.166,0.033-0.303,0.028-0.402C52.06,6.25,51.74,5.697,51.105,5.342z M48.14,11.637c-0.208,0.131-0.427,0.243-0.658,0.338
			c-0.31,0.125-0.603,0.191-0.874,0.191c-0.417,0-0.737-0.06-0.953-0.186c-0.217-0.119-0.331-0.327-0.327-0.625
			c0-0.343,0.079-0.609,0.243-0.818c0.165-0.2,0.411-0.362,0.715-0.482c0.303-0.104,0.675-0.188,1.104-0.248
			c0.382-0.048,1.138-0.135,1.234-0.136c0.097-0.001,0.161-0.054,0.118,0.204c-0.019,0.111-0.237,1.007-0.337,1.414
			C48.376,11.411,48.214,11.589,48.14,11.637z"/>
		<path fill="#929497" d="M30.051,4.925c-0.359,0-0.83,0.29-1.053,0.642c0,0-2.401,4.117-2.637,4.528
			c-0.128,0.222-0.258,0.081-0.28-0.001c-0.017-0.101-0.744-4.5-0.744-4.5c-0.082-0.354-0.452-0.658-0.914-0.657l-1.497,0.003
			c-0.361,0-0.587,0.289-0.506,0.639c0,0,1.145,6.487,1.368,8.014c0.111,0.844-0.011,0.993-0.011,0.993l-1.484,2.587
			c-0.217,0.352-0.098,0.639,0.261,0.639l1.735-0.002c0.359,0,0.835-0.285,1.049-0.637l6.676-11.291c0,0,0.639-0.965,0.05-0.956
			C31.661,4.93,30.051,4.925,30.051,4.925"/>
		<path fill="#929497" d="M8.976,7.22C8.471,7.589,7.771,7.774,6.862,7.774H6.451c-0.362,0-0.59-0.287-0.511-0.64l0.505-2.174
			c0.077-0.351,0.438-0.641,0.8-0.638L7.793,4.32c0.641,0,1.128,0.109,1.457,0.327c0.324,0.212,0.488,0.548,0.482,0.998
			C9.742,6.324,9.484,6.85,8.976,7.22 M12.595,3.869c-0.208-0.406-0.52-0.736-0.919-0.985c-0.413-0.255-0.894-0.431-1.455-0.537
			c-0.563-0.101-1.222-0.15-1.978-0.157L4.745,2.191c-0.364,0.005-0.72,0.29-0.804,0.64L1.582,13.086
			c-0.081,0.351,0.146,0.641,0.508,0.641h1.676c0.362,0,0.721-0.283,0.803-0.641l0.578-2.488c0.077-0.349,0.435-0.637,0.798-0.637
			h0.479c2.05-0.002,3.639-0.422,4.782-1.26c1.141-0.838,1.711-1.948,1.708-3.321C12.917,4.777,12.813,4.272,12.595,3.869"/>
		<path fill="#929497" d="M39.404,7.262c-0.503,0.365-1.207,0.549-2.114,0.549h-0.417c-0.36,0.004-0.594-0.288-0.508-0.638
			l0.503-2.177c0.075-0.346,0.441-0.639,0.796-0.635l0.551-0.004c0.643,0.004,1.125,0.111,1.457,0.325
			c0.327,0.216,0.485,0.552,0.487,0.999C40.16,6.363,39.908,6.888,39.404,7.262 M43.02,3.906c-0.208-0.406-0.524-0.732-0.923-0.988
			c-0.409-0.254-0.895-0.432-1.457-0.535c-0.556-0.098-1.217-0.152-1.971-0.154l-3.506,0.002c-0.361,0.006-0.715,0.289-0.799,0.639
			l-2.357,10.258c-0.087,0.348,0.148,0.639,0.503,0.637l1.682-0.003c0.357,0.003,0.72-0.286,0.805-0.634l0.568-2.489
			c0.08-0.349,0.442-0.642,0.805-0.636h0.478c2.052,0,3.644-0.422,4.783-1.262c1.136-0.844,1.708-1.949,1.708-3.326
			C43.336,4.814,43.234,4.309,43.02,3.906"/>
		<path fill="#929497" d="M20.672,5.334C20.036,4.98,19.041,4.8,17.679,4.8c-0.674,0-1.35,0.054-2.03,0.159
			C15.15,5.035,15.1,5.048,14.79,5.115c-0.638,0.139-0.735,0.777-0.735,0.777L13.85,6.734c-0.116,0.537,0.191,0.516,0.327,0.473
			c0.277-0.083,0.429-0.166,0.997-0.295c0.542-0.123,1.116-0.215,1.572-0.211c0.671,0,1.181,0.072,1.52,0.214
			c0.339,0.148,0.506,0.4,0.506,0.761c0.003,0.086,0.004,0.167-0.026,0.236c-0.028,0.066-0.083,0.131-0.243,0.152
			c-0.956,0.057-1.643,0.145-2.472,0.266c-0.816,0.114-1.53,0.311-2.127,0.584c-0.637,0.282-1.112,0.66-1.44,1.139
			c-0.32,0.482-0.481,1.064-0.481,1.75c0,0.649,0.233,1.178,0.684,1.588c0.457,0.405,1.049,0.606,1.768,0.606
			c0.449-0.002,0.8-0.035,1.052-0.098c0.249-0.063,0.521-0.152,0.807-0.276c0.215-0.09,0.446-0.22,0.691-0.382
			c0.244-0.164,0.414-0.279,0.632-0.422l0.007,0.014l-0.061,0.269c-0.001,0.002-0.004,0.004-0.004,0.008l0.002,0.004
			c-0.07,0.325,0.125,0.596,0.447,0.627l0.004,0.006h0.028l0.001,0.002c0.214,0,0.947-0.001,1.29-0.002h0.239
			c0.016,0,0.019-0.006,0.024-0.008c0.33-0.043,0.643-0.31,0.718-0.629l1.224-5.283c0.027-0.124,0.05-0.268,0.062-0.433
			c0.017-0.167,0.035-0.304,0.03-0.403C21.628,6.242,21.307,5.689,20.672,5.334z M17.707,11.629
			c-0.208,0.131-0.427,0.242-0.658,0.338c-0.31,0.125-0.604,0.19-0.875,0.19c-0.416,0-0.736-0.06-0.953-0.185
			c-0.217-0.119-0.33-0.327-0.327-0.625c0-0.342,0.08-0.609,0.244-0.818c0.165-0.201,0.41-0.363,0.714-0.483
			c0.304-0.103,0.677-0.186,1.106-0.247c0.382-0.048,1.138-0.135,1.234-0.137c0.096,0,0.161-0.053,0.117,0.204
			c-0.018,0.112-0.237,1.008-0.337,1.415C17.943,11.404,17.781,11.582,17.707,11.629z"/>
		<g>
			<g>
				<path fill="#929497" d="M56.883,2.313h-1.5c0,0-0.001,0-0.002,0l-0.001,0c-0.34,0-0.68,0.26-0.781,0.591
					c-0.005,0.017-0.017,0.031-0.022,0.048c0,0-0.026,0.12-0.071,0.326l-2.088,9.462c-0.047,0.207-0.078,0.342-0.088,0.377
					l0.004,0.006c-0.069,0.323,0.125,0.584,0.442,0.618l0.01,0.013h1.556c0.327,0,0.65-0.242,0.766-0.553
					c0.011-0.029,0.031-0.054,0.038-0.084L57.393,2.95l-0.004-0.001C57.465,2.6,57.241,2.313,56.883,2.313z"/>
			</g>
		</g>
		<g>
			<path fill="#929497" d="M59.722,4.383c-0.051,0.014-0.107,0.024-0.168,0.033c-0.061,0.009-0.115,0.014-0.163,0.014
				c-0.167,0-0.293-0.045-0.38-0.135c-0.087-0.09-0.13-0.233-0.13-0.431V2.996h-0.185v-0.23h0.185V2.297h0.274v0.469h0.566v0.23
				h-0.566V3.74c0,0.086,0.003,0.152,0.006,0.201c0.004,0.047,0.018,0.092,0.041,0.135c0.021,0.039,0.05,0.066,0.088,0.085
				c0.038,0.019,0.095,0.027,0.172,0.027c0.045,0,0.091-0.007,0.141-0.021c0.048-0.013,0.083-0.023,0.104-0.032h0.014V4.383z"/>
			<path fill="#929497" d="M62.434,4.397H62.16V3.469c0-0.07-0.003-0.139-0.01-0.203c-0.006-0.065-0.02-0.117-0.04-0.156
				c-0.022-0.042-0.055-0.074-0.096-0.096c-0.042-0.022-0.102-0.031-0.181-0.031c-0.077,0-0.153,0.02-0.231,0.057
				c-0.077,0.039-0.154,0.088-0.231,0.147c0.003,0.023,0.005,0.048,0.007,0.078c0.002,0.03,0.003,0.06,0.003,0.089v1.043h-0.274
				V3.469c0-0.072-0.003-0.141-0.01-0.205c-0.006-0.066-0.02-0.117-0.04-0.156c-0.022-0.041-0.055-0.072-0.097-0.094
				c-0.042-0.022-0.102-0.031-0.181-0.031c-0.075,0-0.15,0.018-0.226,0.055c-0.076,0.037-0.15,0.084-0.226,0.143v1.217h-0.274V2.766
				h0.274v0.182c0.086-0.072,0.171-0.127,0.256-0.167c0.086-0.04,0.176-0.06,0.272-0.06c0.111,0,0.205,0.023,0.283,0.07
				c0.077,0.047,0.135,0.111,0.173,0.193c0.111-0.093,0.212-0.16,0.304-0.201c0.091-0.042,0.189-0.062,0.293-0.062
				c0.179,0,0.312,0.055,0.396,0.162c0.085,0.109,0.128,0.261,0.128,0.455V4.397z"/>
		</g>
	</g>
	<g>
		<path fill="#82AB40" d="M51.105,25.342c-0.637-0.354-1.632-0.534-2.994-0.534c-0.673,0-1.35,0.054-2.029,0.159
			c-0.499,0.076-0.55,0.09-0.859,0.156c-0.638,0.139-0.736,0.777-0.736,0.777l-0.205,0.842c-0.116,0.537,0.19,0.516,0.327,0.474
			c0.278-0.084,0.429-0.167,0.997-0.296c0.542-0.123,1.115-0.215,1.573-0.211c0.671,0,1.181,0.072,1.52,0.215
			c0.339,0.148,0.507,0.399,0.507,0.76c0.001,0.086,0.003,0.166-0.028,0.237c-0.028,0.065-0.081,0.13-0.242,0.151
			c-0.958,0.057-1.645,0.145-2.472,0.266c-0.816,0.114-1.531,0.312-2.128,0.584c-0.637,0.283-1.113,0.66-1.441,1.139
			c-0.32,0.481-0.48,1.064-0.481,1.75c0,0.648,0.233,1.178,0.684,1.588c0.457,0.405,1.05,0.605,1.768,0.605
			c0.449-0.003,0.8-0.035,1.052-0.098c0.249-0.062,0.521-0.152,0.808-0.277c0.214-0.089,0.446-0.219,0.69-0.381
			c0.245-0.164,0.414-0.279,0.631-0.422l0.008,0.014l-0.061,0.27c0,0.003-0.004,0.004-0.004,0.007l0.002,0.005
			c-0.07,0.325,0.125,0.596,0.447,0.627l0.004,0.006h0.028l0.001,0.002c0.214,0,0.947-0.001,1.29-0.002h0.239
			c0.016,0,0.018-0.005,0.024-0.008c0.329-0.041,0.644-0.309,0.718-0.63l1.224-5.282c0.028-0.125,0.05-0.268,0.063-0.434
			c0.016-0.166,0.033-0.303,0.028-0.402C52.06,26.25,51.74,25.697,51.105,25.342z M48.14,31.637
			c-0.208,0.131-0.427,0.243-0.658,0.338c-0.31,0.125-0.603,0.191-0.874,0.191c-0.417,0-0.737-0.06-0.953-0.185
			c-0.217-0.119-0.331-0.327-0.327-0.625c0-0.343,0.079-0.609,0.243-0.818c0.165-0.2,0.411-0.362,0.715-0.482
			c0.303-0.104,0.675-0.188,1.104-0.248c0.382-0.048,1.138-0.135,1.234-0.136c0.097-0.001,0.161-0.054,0.118,0.204
			c-0.019,0.111-0.237,1.007-0.337,1.414C48.376,31.411,48.214,31.589,48.14,31.637z"/>
		<path fill="#82AB40" d="M30.051,24.925c-0.359,0-0.83,0.29-1.053,0.642c0,0-2.401,4.117-2.637,4.528
			c-0.128,0.222-0.258,0.081-0.28-0.001c-0.017-0.101-0.744-4.5-0.744-4.5c-0.082-0.354-0.452-0.658-0.914-0.657l-1.497,0.003
			c-0.361,0-0.587,0.289-0.506,0.639c0,0,1.145,6.487,1.368,8.014c0.111,0.844-0.011,0.993-0.011,0.993l-1.484,2.587
			c-0.217,0.351-0.098,0.639,0.261,0.639l1.735-0.002c0.359,0,0.835-0.285,1.049-0.637l6.676-11.291c0,0,0.639-0.965,0.05-0.956
			C31.661,24.93,30.051,24.925,30.051,24.925"/>
		<path fill="#82AB40" d="M8.976,27.22c-0.505,0.369-1.205,0.555-2.114,0.555H6.451c-0.362,0-0.59-0.287-0.511-0.64l0.505-2.174
			c0.077-0.351,0.438-0.641,0.8-0.638l0.548-0.003c0.641,0,1.128,0.109,1.457,0.327c0.324,0.212,0.488,0.548,0.482,0.998
			C9.742,26.324,9.484,26.85,8.976,27.22 M12.595,23.869c-0.208-0.406-0.52-0.736-0.919-0.985c-0.413-0.255-0.894-0.431-1.455-0.537
			c-0.563-0.101-1.222-0.15-1.978-0.157l-3.498,0.002c-0.364,0.005-0.72,0.29-0.804,0.64L1.582,33.086
			c-0.081,0.351,0.146,0.641,0.508,0.641h1.676c0.362,0,0.721-0.283,0.803-0.641l0.578-2.488c0.077-0.349,0.435-0.637,0.798-0.637
			h0.479c2.05-0.002,3.639-0.422,4.782-1.26c1.141-0.838,1.711-1.948,1.708-3.321C12.917,24.777,12.813,24.272,12.595,23.869"/>
		<path fill="#82AB40" d="M39.404,27.262c-0.503,0.365-1.207,0.549-2.114,0.549h-0.417c-0.36,0.004-0.594-0.288-0.508-0.638
			l0.503-2.177c0.075-0.346,0.441-0.639,0.796-0.635l0.551-0.004c0.643,0.004,1.125,0.111,1.457,0.325
			c0.327,0.216,0.485,0.552,0.487,0.999C40.16,26.363,39.908,26.888,39.404,27.262 M43.02,23.906
			c-0.208-0.406-0.524-0.732-0.923-0.988c-0.409-0.254-0.895-0.432-1.457-0.535c-0.556-0.098-1.217-0.152-1.971-0.154l-3.506,0.002
			c-0.361,0.006-0.715,0.289-0.799,0.639l-2.357,10.258c-0.087,0.348,0.148,0.639,0.503,0.637l1.682-0.003
			c0.357,0.003,0.72-0.286,0.805-0.634l0.568-2.489c0.08-0.349,0.442-0.642,0.805-0.636h0.478c2.052,0,3.644-0.422,4.783-1.262
			c1.136-0.844,1.708-1.949,1.708-3.326C43.336,24.814,43.234,24.309,43.02,23.906"/>
		<path fill="#82AB40" d="M20.672,25.334c-0.636-0.354-1.631-0.534-2.993-0.534c-0.674,0-1.35,0.054-2.03,0.159
			c-0.499,0.076-0.549,0.089-0.859,0.156c-0.638,0.139-0.735,0.777-0.735,0.777l-0.204,0.842c-0.116,0.537,0.191,0.516,0.327,0.473
			c0.277-0.083,0.429-0.166,0.997-0.295c0.542-0.123,1.116-0.215,1.572-0.211c0.671,0,1.181,0.072,1.52,0.214
			c0.339,0.147,0.506,0.4,0.506,0.761c0.003,0.086,0.004,0.167-0.026,0.236c-0.028,0.066-0.083,0.131-0.243,0.152
			c-0.956,0.057-1.643,0.145-2.472,0.266c-0.816,0.114-1.53,0.31-2.127,0.584c-0.637,0.282-1.112,0.66-1.44,1.139
			c-0.32,0.482-0.481,1.063-0.481,1.75c0,0.648,0.233,1.178,0.684,1.588c0.457,0.405,1.049,0.605,1.768,0.605
			c0.449-0.002,0.8-0.035,1.052-0.098c0.249-0.063,0.521-0.152,0.807-0.276c0.215-0.09,0.446-0.22,0.691-0.382
			c0.244-0.164,0.414-0.279,0.632-0.422l0.007,0.014l-0.061,0.27c-0.001,0.002-0.004,0.004-0.004,0.008l0.002,0.004
			c-0.07,0.325,0.125,0.596,0.447,0.627l0.004,0.006h0.028l0.001,0.002c0.214,0,0.947-0.001,1.29-0.002h0.239
			c0.016,0,0.019-0.006,0.024-0.008c0.33-0.043,0.643-0.31,0.718-0.629l1.224-5.283c0.027-0.124,0.05-0.268,0.062-0.433
			c0.017-0.167,0.035-0.304,0.03-0.403C21.628,26.242,21.307,25.689,20.672,25.334z M17.707,31.629
			c-0.208,0.131-0.427,0.242-0.658,0.338c-0.31,0.125-0.604,0.19-0.875,0.19c-0.416,0-0.736-0.06-0.953-0.185
			c-0.217-0.119-0.33-0.327-0.327-0.625c0-0.342,0.08-0.609,0.244-0.818c0.165-0.201,0.41-0.363,0.714-0.483
			c0.304-0.103,0.677-0.187,1.106-0.247c0.382-0.048,1.138-0.135,1.234-0.137c0.096,0,0.161-0.053,0.117,0.204
			c-0.018,0.112-0.237,1.008-0.337,1.415C17.943,31.404,17.781,31.582,17.707,31.629z"/>
		<g>
			<g>
				<path fill="#82AB40" d="M56.883,22.313h-1.5c-0.001,0-0.001,0-0.002,0l-0.001,0c-0.34,0-0.68,0.26-0.781,0.591
					c-0.005,0.017-0.017,0.031-0.022,0.048c0,0-0.026,0.12-0.071,0.326l-2.088,9.462c-0.047,0.207-0.078,0.342-0.088,0.377
					l0.004,0.006c-0.069,0.323,0.125,0.584,0.442,0.618l0.01,0.013h1.556c0.327,0,0.65-0.242,0.766-0.553
					c0.011-0.029,0.031-0.054,0.038-0.084l2.247-10.166l-0.004-0.001C57.465,22.6,57.241,22.313,56.883,22.313z"/>
			</g>
		</g>
		<g>
			<path fill="#82AB40" d="M59.722,24.383c-0.051,0.014-0.107,0.024-0.168,0.033c-0.061,0.009-0.115,0.014-0.163,0.014
				c-0.167,0-0.293-0.045-0.38-0.135c-0.087-0.09-0.13-0.233-0.13-0.431v-0.868h-0.185v-0.23h0.185v-0.469h0.274v0.469h0.566v0.23
				h-0.566v0.744c0,0.086,0.003,0.152,0.006,0.201c0.004,0.047,0.018,0.092,0.041,0.135c0.021,0.039,0.05,0.066,0.088,0.085
				c0.038,0.019,0.095,0.027,0.172,0.027c0.045,0,0.091-0.007,0.141-0.021c0.048-0.013,0.083-0.024,0.104-0.032h0.014V24.383z"/>
			<path fill="#82AB40" d="M62.434,24.397H62.16v-0.928c0-0.07-0.003-0.139-0.01-0.203c-0.006-0.065-0.02-0.117-0.04-0.156
				c-0.022-0.042-0.055-0.074-0.096-0.096c-0.042-0.021-0.102-0.031-0.181-0.031c-0.077,0-0.153,0.019-0.231,0.057
				c-0.077,0.039-0.154,0.088-0.231,0.148c0.003,0.022,0.005,0.048,0.007,0.078c0.002,0.03,0.003,0.06,0.003,0.089v1.043h-0.274
				v-0.928c0-0.072-0.003-0.141-0.01-0.205c-0.006-0.066-0.02-0.117-0.04-0.156c-0.022-0.041-0.055-0.072-0.097-0.094
				c-0.042-0.021-0.102-0.031-0.181-0.031c-0.075,0-0.15,0.018-0.226,0.055c-0.076,0.037-0.15,0.084-0.226,0.143v1.217h-0.274
				v-1.631h0.274v0.182c0.086-0.072,0.171-0.127,0.256-0.167c0.086-0.04,0.176-0.06,0.272-0.06c0.111,0,0.205,0.023,0.283,0.07
				c0.077,0.047,0.135,0.111,0.173,0.193c0.111-0.093,0.212-0.16,0.304-0.201c0.091-0.042,0.189-0.062,0.293-0.062
				c0.179,0,0.312,0.055,0.396,0.162c0.085,0.109,0.128,0.261,0.128,0.455V24.397z"/>
		</g>
	</g>
</g>
<g id="Guides">
</g>
</svg>
