<?xml version="1.0" encoding="utf-8"?>
<!-- Generator: Adobe Illustrator 17.0.0, SVG Export Plug-In . SVG Version: 6.00 Build 0)  -->
<!DOCTYPE svg PUBLIC "-//W3C//DTD SVG 1.1//EN" "http://www.w3.org/Graphics/SVG/1.1/DTD/svg11.dtd">
<svg version="1.1" xmlns="http://www.w3.org/2000/svg" xmlns:xlink="http://www.w3.org/1999/xlink" x="0px" y="0px" width="82px"
	 height="40px" viewBox="0 0 82 40" enable-background="new 0 0 82 40" xml:space="preserve">
<g id="Base">
</g>
<g id="Art">
	<g>
		<path fill="#FFFFFF" d="M66.662,7.749h2.675v8.589h-2.675V7.749z M68,3.478c0.854,0,1.548,0.693,1.548,1.547
			c0,0.854-0.694,1.549-1.548,1.549c-0.858,0-1.549-0.694-1.549-1.549C66.451,4.171,67.142,3.478,68,3.478"/>
		<path fill="#FFFFFF" d="M71.013,7.749h2.561v1.173h0.037c0.356-0.676,1.228-1.387,2.528-1.387c2.703,0,3.203,1.778,3.203,4.092
			v4.711h-2.67v-4.177c0-0.996-0.019-2.277-1.389-2.277c-1.39,0-1.602,1.085-1.602,2.205v4.25h-2.668V7.749z"/>
	</g>
	<g>
		<path fill="#FFFFFF" d="M60.696,6.467c-0.419,0.186-0.87,0.312-1.342,0.368c0.483-0.289,0.853-0.748,1.027-1.293
			c-0.451,0.268-0.953,0.462-1.485,0.566c-0.426-0.454-1.033-0.738-1.706-0.738c-1.291,0-2.337,1.046-2.337,2.337
			c0,0.183,0.021,0.362,0.061,0.533c-1.943-0.097-3.665-1.028-4.817-2.441c-0.202,0.345-0.316,0.746-0.316,1.175
			c0,0.81,0.411,1.526,1.039,1.945c-0.382-0.013-0.743-0.118-1.058-0.293c0,0.009,0,0.019,0,0.029c0,1.132,0.805,2.077,1.875,2.291
			c-0.196,0.054-0.402,0.083-0.616,0.083c-0.15,0-0.297-0.015-0.439-0.042c0.297,0.929,1.16,1.604,2.183,1.623
			c-0.8,0.627-1.808,1-2.903,1c-0.189,0-0.374-0.011-0.557-0.032c1.034,0.664,2.263,1.05,3.583,1.05c4.298,0,6.65-3.561,6.65-6.649
			c0-0.102-0.003-0.202-0.007-0.303C59.986,7.347,60.382,6.936,60.696,6.467z"/>
	</g>
	<g>
		<path id="lozenge_2_" fill="#929497" d="M44.311,4.883c0,0-0.251-1.764-1.023-2.54c-0.977-1.019-2.073-1.025-2.575-1.084
			C37.115,1,31.72,1,31.72,1h-0.012c0,0-5.397,0-8.994,0.259c-0.503,0.059-1.598,0.064-2.576,1.084
			c-0.77,0.776-1.021,2.54-1.021,2.54s-0.257,2.071-0.257,4.142v1.941c0,2.071,0.257,4.142,0.257,4.142s0.252,1.764,1.021,2.541
			c0.979,1.02,2.263,0.987,2.835,1.094C25.03,18.94,31.714,19,31.714,19s5.401-0.008,9-0.267c0.501-0.059,1.598-0.064,2.575-1.084
			c0.772-0.776,1.023-2.541,1.023-2.541s0.256-2.071,0.256-4.142V9.025C44.567,6.954,44.311,4.883,44.311,4.883z"/>
		<path id="u_3_" fill="#929497" d="M17.532,15.567h-1.637v-0.948c-0.62,0.711-1.145,1.07-1.718,1.07
			c-0.503,0-0.852-0.237-1.027-0.666c-0.106-0.261-0.182-0.668-0.182-1.265V6.871h1.636v6.457c0,0.365,0,0.517,0,0.603
			c0.037,0.242,0.14,0.33,0.348,0.33c0.313,0,0.596-0.272,0.942-0.761V6.871h1.637V15.567z"/>
		<path id="o_2_" fill="#929497" d="M11.764,9.712c0-0.93-0.186-1.627-0.516-2.066c-0.437-0.595-1.12-0.838-1.809-0.838
			c-0.78,0-1.372,0.244-1.808,0.838C7.296,8.085,7.117,8.791,7.117,9.72l-0.003,3.091c0,0.924,0.16,1.563,0.495,1.998
			c0.435,0.592,1.142,0.907,1.83,0.907c0.689,0,1.407-0.314,1.843-0.907c0.329-0.436,0.481-1.074,0.481-1.998V9.712z M10.128,12.984
			c0.085,0.861-0.181,1.288-0.689,1.288c-0.508,0-0.775-0.427-0.688-1.288V9.54c-0.087-0.861,0.18-1.264,0.688-1.264
			c0.509,0,0.775,0.403,0.69,1.264L10.128,12.984z"/>
		<path id="y_2_" fill="#929497" d="M5.307,10.832v4.735H3.584v-4.735c0,0-1.784-5.806-2.152-6.888H3.24l1.209,4.536l1.202-4.536
			h1.807L5.307,10.832z"/>
		<path id="e_2_" fill="#FFFFFF" d="M42.415,11.52V9.76c0-0.92-0.181-1.592-0.506-2.027c-0.437-0.589-1.058-0.9-1.839-0.9
			c-0.795,0-1.417,0.312-1.867,0.9c-0.332,0.435-0.525,1.146-0.525,2.065v3.013c0,0.915,0.214,1.555,0.545,1.985
			c0.449,0.588,1.07,0.881,1.886,0.881c0.815,0,1.455-0.308,1.885-0.932c0.189-0.276,0.312-0.589,0.364-0.934
			c0.014-0.156,0.056-0.511,0.056-1.014v-0.244h-1.637c0,0.626,0.003,0.997-0.011,1.082c-0.088,0.417-0.312,0.626-0.696,0.626
			c-0.535,0-0.761-0.4-0.756-1.194V11.52H42.415z M39.314,9.278c0-0.805,0.221-1.024,0.741-1.024c0.517,0,0.722,0.239,0.722,1.036
			v0.939l-1.463,0.001V9.278z"/>
		<path id="b_2_" fill="#FFFFFF" d="M35.19,6.819c-0.574,0-1.143,0.352-1.646,0.972l0-3.761h-1.549v11.537h1.549l0.003-0.867
			c0.521,0.644,1.089,0.978,1.643,0.978c0.622,0,1.074-0.332,1.282-0.971c0.104-0.365,0.172-0.927,0.172-1.722V9.54
			c0-0.815-0.104-1.372-0.208-1.718C36.228,7.177,35.812,6.819,35.19,6.819z M35.009,13.07c0,0.861-0.203,1.191-0.652,1.191
			c-0.256,0-0.553-0.132-0.812-0.393l0-5.221c0.261-0.257,0.556-0.393,0.812-0.393c0.449,0,0.652,0.253,0.652,1.114V13.07z"/>
		<path id="u_2_" fill="#FFFFFF" d="M30.705,15.567h-1.637v-0.948c-0.62,0.711-1.145,1.07-1.717,1.07
			c-0.503,0-0.853-0.237-1.027-0.666c-0.107-0.261-0.183-0.668-0.183-1.265V6.957h1.636v6.371c0,0.365,0,0.517,0,0.603
			c0.038,0.242,0.141,0.33,0.349,0.33c0.313,0,0.596-0.272,0.942-0.761V6.957h1.637V15.567z"/>
		<polygon id="T_1_" fill="#FFFFFF" points="24.506,15.567 22.784,15.567 22.784,5.666 20.976,5.666 20.976,4.032 26.399,4.03 
			26.399,5.666 24.506,5.666 		"/>
	</g>
	<g>
		<path fill="#FFFFFF" d="M66.662,7.749h2.675v8.589h-2.675V7.749z M68,3.478c0.854,0,1.548,0.693,1.548,1.547
			c0,0.854-0.694,1.549-1.548,1.549c-0.858,0-1.549-0.694-1.549-1.549C66.451,4.171,67.142,3.478,68,3.478"/>
		<path fill="#FFFFFF" d="M71.013,7.749h2.561v1.173h0.037c0.356-0.676,1.228-1.387,2.528-1.387c2.703,0,3.203,1.778,3.203,4.092
			v4.711h-2.67v-4.177c0-0.996-0.019-2.277-1.389-2.277c-1.39,0-1.602,1.085-1.602,2.205v4.25h-2.668V7.749z"/>
	</g>
	<g>
		<path fill="#FFFFFF" d="M60.696,6.467c-0.419,0.186-0.87,0.312-1.342,0.368c0.483-0.289,0.853-0.748,1.027-1.293
			c-0.451,0.268-0.953,0.462-1.485,0.566c-0.426-0.454-1.033-0.738-1.706-0.738c-1.291,0-2.337,1.046-2.337,2.337
			c0,0.183,0.021,0.362,0.061,0.533c-1.943-0.097-3.665-1.028-4.817-2.441c-0.202,0.345-0.316,0.746-0.316,1.175
			c0,0.81,0.411,1.526,1.039,1.945c-0.382-0.013-0.743-0.118-1.058-0.293c0,0.009,0,0.019,0,0.029c0,1.132,0.805,2.077,1.875,2.291
			c-0.196,0.054-0.402,0.083-0.616,0.083c-0.15,0-0.297-0.015-0.439-0.042c0.297,0.929,1.16,1.604,2.183,1.623
			c-0.8,0.627-1.808,1-2.903,1c-0.189,0-0.374-0.011-0.557-0.032c1.034,0.664,2.263,1.05,3.583,1.05c4.298,0,6.65-3.561,6.65-6.649
			c0-0.102-0.003-0.202-0.007-0.303C59.986,7.347,60.382,6.936,60.696,6.467z"/>
	</g>
	<g>
		<path id="lozenge_1_" fill="#929497" d="M44.311,4.883c0,0-0.251-1.764-1.023-2.54c-0.977-1.019-2.073-1.025-2.575-1.084
			C37.115,1,31.72,1,31.72,1h-0.012c0,0-5.397,0-8.994,0.259c-0.503,0.059-1.598,0.064-2.576,1.084
			c-0.77,0.776-1.021,2.54-1.021,2.54s-0.257,2.071-0.257,4.142v1.941c0,2.071,0.257,4.142,0.257,4.142s0.252,1.764,1.021,2.541
			c0.979,1.02,2.263,0.987,2.835,1.094C25.03,18.94,31.714,19,31.714,19s5.401-0.008,9-0.267c0.501-0.059,1.598-0.064,2.575-1.084
			c0.772-0.776,1.023-2.541,1.023-2.541s0.256-2.071,0.256-4.142V9.025C44.567,6.954,44.311,4.883,44.311,4.883z"/>
		<path id="u_4_" fill="#929497" d="M17.532,15.567h-1.637v-0.948c-0.62,0.711-1.145,1.07-1.718,1.07
			c-0.503,0-0.852-0.237-1.027-0.666c-0.106-0.261-0.182-0.668-0.182-1.265V6.871h1.636v6.457c0,0.365,0,0.517,0,0.603
			c0.037,0.242,0.14,0.33,0.348,0.33c0.313,0,0.596-0.272,0.942-0.761V6.871h1.637V15.567z"/>
		<path id="o_1_" fill="#929497" d="M11.764,9.712c0-0.93-0.186-1.627-0.516-2.066c-0.437-0.595-1.12-0.838-1.809-0.838
			c-0.78,0-1.372,0.244-1.808,0.838C7.296,8.085,7.117,8.791,7.117,9.72l-0.003,3.091c0,0.924,0.16,1.563,0.495,1.998
			c0.435,0.592,1.142,0.907,1.83,0.907c0.689,0,1.407-0.314,1.843-0.907c0.329-0.436,0.481-1.074,0.481-1.998V9.712z M10.128,12.984
			c0.085,0.861-0.181,1.288-0.689,1.288c-0.508,0-0.775-0.427-0.688-1.288V9.54c-0.087-0.861,0.18-1.264,0.688-1.264
			c0.509,0,0.775,0.403,0.69,1.264L10.128,12.984z"/>
		<path id="y_1_" fill="#929497" d="M5.307,10.832v4.735H3.584v-4.735c0,0-1.784-5.806-2.152-6.888H3.24l1.209,4.536l1.202-4.536
			h1.807L5.307,10.832z"/>
		<path id="e_1_" fill="#FFFFFF" d="M42.415,11.52V9.76c0-0.92-0.181-1.592-0.506-2.027c-0.437-0.589-1.058-0.9-1.839-0.9
			c-0.795,0-1.417,0.312-1.867,0.9c-0.332,0.435-0.525,1.146-0.525,2.065v3.013c0,0.915,0.214,1.555,0.545,1.985
			c0.449,0.588,1.07,0.881,1.886,0.881c0.815,0,1.455-0.308,1.885-0.932c0.189-0.276,0.312-0.589,0.364-0.934
			c0.014-0.156,0.056-0.511,0.056-1.014v-0.244h-1.637c0,0.626,0.003,0.997-0.011,1.082c-0.088,0.417-0.312,0.626-0.696,0.626
			c-0.535,0-0.761-0.4-0.756-1.194V11.52H42.415z M39.314,9.278c0-0.805,0.221-1.024,0.741-1.024c0.517,0,0.722,0.239,0.722,1.036
			v0.939l-1.463,0.001V9.278z"/>
		<path id="b_1_" fill="#FFFFFF" d="M35.19,6.819c-0.574,0-1.143,0.352-1.646,0.972l0-3.761h-1.549v11.537h1.549l0.003-0.867
			c0.521,0.644,1.089,0.978,1.643,0.978c0.622,0,1.074-0.332,1.282-0.971c0.104-0.365,0.172-0.927,0.172-1.722V9.54
			c0-0.815-0.104-1.372-0.208-1.718C36.228,7.177,35.812,6.819,35.19,6.819z M35.009,13.07c0,0.861-0.203,1.191-0.652,1.191
			c-0.256,0-0.553-0.132-0.812-0.393l0-5.221c0.261-0.257,0.556-0.393,0.812-0.393c0.449,0,0.652,0.253,0.652,1.114V13.07z"/>
		<path id="u_1_" fill="#FFFFFF" d="M30.705,15.567h-1.637v-0.948c-0.62,0.711-1.145,1.07-1.717,1.07
			c-0.503,0-0.853-0.237-1.027-0.666c-0.107-0.261-0.183-0.668-0.183-1.265V6.957h1.636v6.371c0,0.365,0,0.517,0,0.603
			c0.038,0.242,0.141,0.33,0.349,0.33c0.313,0,0.596-0.272,0.942-0.761V6.957h1.637V15.567z"/>
		<polygon id="T_2_" fill="#FFFFFF" points="24.506,15.567 22.784,15.567 22.784,5.666 20.976,5.666 20.976,4.032 26.399,4.03 
			26.399,5.666 24.506,5.666 		"/>
	</g>
	<g>
		<path fill="#82AB40" d="M66.662,27.749h2.675v8.589h-2.675V27.749z M68,23.478c0.854,0,1.548,0.693,1.548,1.547
			c0,0.854-0.694,1.549-1.548,1.549c-0.858,0-1.549-0.694-1.549-1.549C66.451,24.171,67.142,23.478,68,23.478"/>
		<path fill="#82AB40" d="M71.012,27.749h2.561v1.173h0.037c0.356-0.676,1.228-1.387,2.528-1.387c2.703,0,3.203,1.778,3.203,4.092
			v4.711h-2.67v-4.177c0-0.996-0.019-2.277-1.389-2.277c-1.39,0-1.602,1.084-1.602,2.205v4.249h-2.668V27.749z"/>
	</g>
	<g>
		<path fill="#82AB40" d="M60.695,26.467c-0.419,0.186-0.87,0.311-1.342,0.368c0.483-0.289,0.852-0.748,1.027-1.292
			c-0.451,0.268-0.953,0.462-1.485,0.566c-0.426-0.454-1.033-0.738-1.706-0.738c-1.291,0-2.337,1.046-2.337,2.337
			c0,0.183,0.021,0.362,0.061,0.533c-1.943-0.097-3.664-1.028-4.817-2.441c-0.202,0.345-0.316,0.746-0.316,1.175
			c0,0.81,0.411,1.526,1.039,1.945c-0.382-0.013-0.743-0.118-1.058-0.292c0,0.009,0,0.019,0,0.029c0,1.132,0.805,2.077,1.875,2.291
			c-0.196,0.054-0.402,0.083-0.616,0.083c-0.15,0-0.297-0.015-0.44-0.042c0.297,0.929,1.16,1.604,2.183,1.623
			c-0.8,0.627-1.808,1-2.903,1c-0.189,0-0.374-0.011-0.557-0.032c1.034,0.664,2.263,1.05,3.583,1.05c4.298,0,6.65-3.56,6.65-6.649
			c0-0.101-0.003-0.202-0.007-0.303C59.985,27.347,60.382,26.936,60.695,26.467z"/>
	</g>
	<g>
		<path id="lozenge_4_" fill="#929497" d="M44.311,24.883c0,0-0.251-1.764-1.023-2.541c-0.977-1.02-2.073-1.025-2.575-1.084
			C37.114,21,31.719,21,31.719,21h-0.012c0,0-5.396,0-8.994,0.259c-0.503,0.059-1.598,0.064-2.576,1.084
			c-0.77,0.776-1.022,2.541-1.022,2.541s-0.257,2.071-0.257,4.142v1.941c0,2.071,0.257,4.142,0.257,4.142s0.252,1.764,1.022,2.541
			c0.978,1.02,2.263,0.987,2.835,1.094C25.03,38.939,31.714,39,31.714,39s5.401-0.008,9-0.267c0.501-0.059,1.598-0.064,2.575-1.084
			c0.771-0.776,1.023-2.541,1.023-2.541s0.256-2.071,0.256-4.142v-1.941C44.567,26.954,44.311,24.883,44.311,24.883z"/>
		<path id="u_8_" fill="#82AB40" d="M17.532,35.567h-1.637v-0.948c-0.62,0.711-1.145,1.07-1.718,1.07
			c-0.503,0-0.852-0.237-1.027-0.666c-0.106-0.261-0.182-0.667-0.182-1.265v-6.888h1.636v6.457c0,0.365,0,0.517,0,0.603
			c0.037,0.242,0.14,0.33,0.348,0.33c0.313,0,0.596-0.272,0.942-0.761v-6.629h1.637V35.567z"/>
		<path id="o_4_" fill="#82AB40" d="M11.763,29.712c0-0.93-0.187-1.627-0.516-2.066c-0.436-0.595-1.12-0.838-1.809-0.838
			c-0.78,0-1.372,0.244-1.808,0.838c-0.335,0.44-0.514,1.145-0.514,2.074l-0.003,3.091c0,0.924,0.16,1.563,0.495,1.999
			c0.435,0.592,1.142,0.907,1.83,0.907c0.689,0,1.407-0.314,1.843-0.907c0.329-0.436,0.482-1.074,0.482-1.999V29.712z
			 M10.128,32.984c0.085,0.861-0.181,1.288-0.689,1.288c-0.508,0-0.775-0.427-0.688-1.288V29.54
			c-0.087-0.861,0.18-1.264,0.688-1.264c0.509,0,0.775,0.403,0.69,1.264L10.128,32.984z"/>
		<path id="y_4_" fill="#82AB40" d="M5.307,30.832v4.735H3.584v-4.735c0,0-1.784-5.806-2.152-6.888H3.24l1.209,4.536l1.202-4.536
			h1.807L5.307,30.832z"/>
		<path id="e_4_" fill="#FFFFFF" d="M42.415,31.52v-1.76c0-0.92-0.181-1.592-0.506-2.027c-0.437-0.589-1.058-0.9-1.839-0.9
			c-0.795,0-1.417,0.312-1.867,0.9c-0.332,0.435-0.525,1.146-0.525,2.065v3.013c0,0.915,0.214,1.555,0.545,1.985
			c0.449,0.588,1.07,0.881,1.886,0.881c0.815,0,1.455-0.308,1.885-0.932c0.189-0.276,0.312-0.589,0.364-0.934
			c0.014-0.156,0.056-0.511,0.056-1.014v-0.244h-1.637c0,0.625,0.003,0.997-0.011,1.082c-0.088,0.417-0.312,0.625-0.696,0.625
			c-0.535,0-0.761-0.4-0.756-1.194V31.52H42.415z M39.314,29.278c0-0.805,0.221-1.024,0.741-1.024c0.517,0,0.722,0.239,0.722,1.036
			v0.939l-1.463,0.001V29.278z"/>
		<path id="b_4_" fill="#FFFFFF" d="M35.19,26.819c-0.574,0-1.143,0.352-1.646,0.972l0-3.761h-1.549v11.537h1.549l0.003-0.867
			c0.521,0.644,1.089,0.978,1.643,0.978c0.622,0,1.074-0.332,1.282-0.971c0.104-0.365,0.172-0.927,0.172-1.722V29.54
			c0-0.815-0.104-1.372-0.208-1.718C36.228,27.177,35.812,26.819,35.19,26.819z M35.009,33.07c0,0.861-0.203,1.191-0.652,1.191
			c-0.256,0-0.553-0.132-0.812-0.393l0-5.221c0.261-0.257,0.556-0.393,0.812-0.393c0.449,0,0.652,0.253,0.652,1.114V33.07z"/>
		<path id="u_7_" fill="#FFFFFF" d="M30.704,35.567h-1.637v-0.948c-0.62,0.711-1.145,1.07-1.717,1.07
			c-0.503,0-0.853-0.237-1.027-0.666c-0.107-0.261-0.183-0.667-0.183-1.265v-6.801h1.636v6.371c0,0.365,0,0.517,0,0.603
			c0.038,0.242,0.141,0.33,0.349,0.33c0.313,0,0.596-0.272,0.942-0.761v-6.542h1.637V35.567z"/>
		<polygon id="T_4_" fill="#FFFFFF" points="24.506,35.567 22.784,35.567 22.784,25.666 20.976,25.666 20.976,24.032 26.399,24.03 
			26.399,25.666 24.506,25.666 		"/>
	</g>
	<g>
		<path fill="#82AB40" d="M66.662,27.749h2.675v8.589h-2.675V27.749z M68,23.478c0.854,0,1.548,0.693,1.548,1.547
			c0,0.854-0.694,1.549-1.548,1.549c-0.858,0-1.549-0.694-1.549-1.549C66.451,24.171,67.142,23.478,68,23.478"/>
		<path fill="#82AB40" d="M71.012,27.749h2.561v1.173h0.037c0.356-0.676,1.228-1.387,2.528-1.387c2.703,0,3.203,1.778,3.203,4.092
			v4.711h-2.67v-4.177c0-0.996-0.019-2.277-1.389-2.277c-1.39,0-1.602,1.084-1.602,2.205v4.249h-2.668V27.749z"/>
	</g>
	<g>
		<path fill="#82AB40" d="M60.695,26.467c-0.419,0.186-0.87,0.311-1.342,0.368c0.483-0.289,0.852-0.748,1.027-1.292
			c-0.451,0.268-0.953,0.462-1.485,0.566c-0.426-0.454-1.033-0.738-1.706-0.738c-1.291,0-2.337,1.046-2.337,2.337
			c0,0.183,0.021,0.362,0.061,0.533c-1.943-0.097-3.664-1.028-4.817-2.441c-0.202,0.345-0.316,0.746-0.316,1.175
			c0,0.81,0.411,1.526,1.039,1.945c-0.382-0.013-0.743-0.118-1.058-0.292c0,0.009,0,0.019,0,0.029c0,1.132,0.805,2.077,1.875,2.291
			c-0.196,0.054-0.402,0.083-0.616,0.083c-0.15,0-0.297-0.015-0.44-0.042c0.297,0.929,1.16,1.604,2.183,1.623
			c-0.8,0.627-1.808,1-2.903,1c-0.189,0-0.374-0.011-0.557-0.032c1.034,0.664,2.263,1.05,3.583,1.05c4.298,0,6.65-3.56,6.65-6.649
			c0-0.101-0.003-0.202-0.007-0.303C59.985,27.347,60.382,26.936,60.695,26.467z"/>
	</g>
	<g>
		<path id="lozenge_3_" fill="#82AB40" d="M44.311,24.883c0,0-0.251-1.764-1.023-2.541c-0.977-1.02-2.073-1.025-2.575-1.084
			C37.114,21,31.719,21,31.719,21h-0.012c0,0-5.396,0-8.994,0.259c-0.503,0.059-1.598,0.064-2.576,1.084
			c-0.77,0.776-1.022,2.541-1.022,2.541s-0.257,2.071-0.257,4.142v1.941c0,2.071,0.257,4.142,0.257,4.142s0.252,1.764,1.022,2.541
			c0.978,1.02,2.263,0.987,2.835,1.094C25.03,38.939,31.714,39,31.714,39s5.401-0.008,9-0.267c0.501-0.059,1.598-0.064,2.575-1.084
			c0.771-0.776,1.023-2.541,1.023-2.541s0.256-2.071,0.256-4.142v-1.941C44.567,26.954,44.311,24.883,44.311,24.883z"/>
		<path id="u_6_" fill="#82AB40" d="M17.532,35.567h-1.637v-0.948c-0.62,0.711-1.145,1.07-1.718,1.07
			c-0.503,0-0.852-0.237-1.027-0.666c-0.106-0.261-0.182-0.667-0.182-1.265v-6.888h1.636v6.457c0,0.365,0,0.517,0,0.603
			c0.037,0.242,0.14,0.33,0.348,0.33c0.313,0,0.596-0.272,0.942-0.761v-6.629h1.637V35.567z"/>
		<path id="o_3_" fill="#82AB40" d="M11.763,29.712c0-0.93-0.187-1.627-0.516-2.066c-0.436-0.595-1.12-0.838-1.809-0.838
			c-0.78,0-1.372,0.244-1.808,0.838c-0.335,0.44-0.514,1.145-0.514,2.074l-0.003,3.091c0,0.924,0.16,1.563,0.495,1.999
			c0.435,0.592,1.142,0.907,1.83,0.907c0.689,0,1.407-0.314,1.843-0.907c0.329-0.436,0.482-1.074,0.482-1.999V29.712z
			 M10.128,32.984c0.085,0.861-0.181,1.288-0.689,1.288c-0.508,0-0.775-0.427-0.688-1.288V29.54
			c-0.087-0.861,0.18-1.264,0.688-1.264c0.509,0,0.775,0.403,0.69,1.264L10.128,32.984z"/>
		<path id="y_3_" fill="#82AB40" d="M5.307,30.832v4.735H3.584v-4.735c0,0-1.784-5.806-2.152-6.888H3.24l1.209,4.536l1.202-4.536
			h1.807L5.307,30.832z"/>
		<path id="e_3_" fill="#FFFFFF" d="M42.415,31.52v-1.76c0-0.92-0.181-1.592-0.506-2.027c-0.437-0.589-1.058-0.9-1.839-0.9
			c-0.795,0-1.417,0.312-1.867,0.9c-0.332,0.435-0.525,1.146-0.525,2.065v3.013c0,0.915,0.214,1.555,0.545,1.985
			c0.449,0.588,1.07,0.881,1.886,0.881c0.815,0,1.455-0.308,1.885-0.932c0.189-0.276,0.312-0.589,0.364-0.934
			c0.014-0.156,0.056-0.511,0.056-1.014v-0.244h-1.637c0,0.625,0.003,0.997-0.011,1.082c-0.088,0.417-0.312,0.625-0.696,0.625
			c-0.535,0-0.761-0.4-0.756-1.194V31.52H42.415z M39.314,29.278c0-0.805,0.221-1.024,0.741-1.024c0.517,0,0.722,0.239,0.722,1.036
			v0.939l-1.463,0.001V29.278z"/>
		<path id="b_3_" fill="#FFFFFF" d="M35.19,26.819c-0.574,0-1.143,0.352-1.646,0.972l0-3.761h-1.549v11.537h1.549l0.003-0.867
			c0.521,0.644,1.089,0.978,1.643,0.978c0.622,0,1.074-0.332,1.282-0.971c0.104-0.365,0.172-0.927,0.172-1.722V29.54
			c0-0.815-0.104-1.372-0.208-1.718C36.228,27.177,35.812,26.819,35.19,26.819z M35.009,33.07c0,0.861-0.203,1.191-0.652,1.191
			c-0.256,0-0.553-0.132-0.812-0.393l0-5.221c0.261-0.257,0.556-0.393,0.812-0.393c0.449,0,0.652,0.253,0.652,1.114V33.07z"/>
		<path id="u_5_" fill="#FFFFFF" d="M30.704,35.567h-1.637v-0.948c-0.62,0.711-1.145,1.07-1.717,1.07
			c-0.503,0-0.853-0.237-1.027-0.666c-0.107-0.261-0.183-0.667-0.183-1.265v-6.801h1.636v6.371c0,0.365,0,0.517,0,0.603
			c0.038,0.242,0.141,0.33,0.349,0.33c0.313,0,0.596-0.272,0.942-0.761v-6.542h1.637V35.567z"/>
		<polygon id="T_3_" fill="#FFFFFF" points="24.506,35.567 22.784,35.567 22.784,25.666 20.976,25.666 20.976,24.032 26.399,24.03 
			26.399,25.666 24.506,25.666 		"/>
	</g>
</g>
<g id="Guides">
</g>
</svg>
