<?xml version="1.0" encoding="utf-8"?>
<!-- Generator: Adobe Illustrator 17.0.0, SVG Export Plug-In . SVG Version: 6.00 Build 0)  -->
<!DOCTYPE svg PUBLIC "-//W3C//DTD SVG 1.1//EN" "http://www.w3.org/Graphics/SVG/1.1/DTD/svg11.dtd">
<svg version="1.1" xmlns="http://www.w3.org/2000/svg" xmlns:xlink="http://www.w3.org/1999/xlink" x="0px" y="0px" width="40px"
	 height="40px" viewBox="0 0 40 40" enable-background="new 0 0 40 40" xml:space="preserve">
<g id="Base">
</g>
<g id="Art">
	<path fill="#FFFFFF" d="M29.77,14.635c-0.662,0.293-1.373,0.492-2.12,0.581c0.763-0.456,1.347-1.181,1.624-2.042
		c-0.713,0.422-1.506,0.73-2.347,0.895c-0.673-0.718-1.633-1.165-2.695-1.165c-2.041,0-3.693,1.653-3.693,3.692
		c0,0.29,0.033,0.572,0.097,0.841c-3.07-0.153-5.791-1.623-7.612-3.857c-0.32,0.545-0.501,1.179-0.501,1.856
		c0,1.28,0.651,2.412,1.642,3.074c-0.605-0.02-1.173-0.187-1.672-0.462c0,0.015,0,0.031,0,0.047c0,1.789,1.272,3.282,2.962,3.62
		c-0.31,0.086-0.636,0.13-0.974,0.13c-0.237,0-0.469-0.023-0.694-0.067c0.469,1.468,1.834,2.536,3.45,2.566
		c-1.264,0.991-2.857,1.58-4.587,1.58c-0.299,0-0.591-0.017-0.88-0.05c1.634,1.048,3.576,1.658,5.662,1.658
		c6.792,0,10.507-5.626,10.507-10.507c0-0.16-0.004-0.318-0.011-0.478C28.649,16.026,29.275,15.375,29.77,14.635z"/>
</g>
<g id="Guides">
</g>
</svg>
